{
.appVersion = "3337";
.formatVersion = 3;
DisplayStrings = (
"",
OHamburgefontsiv,
n,
g
);
customParameters = (
{
name = vendorID;
value = "????";
},
{
name = panose;
value = (
0,
0,
0,
0,
0,
0,
0,
0,
0,
0
);
},
{
name = unicodeRanges;
value = (
0
);
},
{
name = fsType;
value = (
);
},
{
name = glyphOrder;
value = (
.notdef,
GID1,
GID2,
space,
GID4,
GID5,
GID6,
GID7,
GID8,
GID9,
GID10,
GID11,
GID12,
GID13,
GID14,
GID15,
GID16,
GID17,
GID18,
GID19,
GID20,
GID21,
GID22,
GID23,
GID24,
GID25,
GID26,
GID27,
GID28,
GID29,
GID30,
GID31,
GID32,
GID33,
GID34,
GID35,
A,
B,
C,
D,
E,
F,
G,
H,
I,
J,
K,
L,
M,
N,
O,
P,
Q,
R,
S,
T,
U,
V,
W,
X,
Y,
Z,
GID62,
GID63,
GID64,
GID65,
GID66,
GID67,
a,
b,
c,
d,
e,
f,
g,
h,
i,
j,
k,
l,
m,
n,
o,
p,
q,
r,
s,
t,
u,
v,
w,
x,
y,
z,
GID94,
GID95,
GID96,
GID97,
GID98,
GID99,
GID100,
GID101,
GID102,
GID103,
GID104,
GID105,
GID106,
GID107,
GID108,
GID109,
GID110,
GID111,
GID112,
GID113,
GID114,
GID115,
GID116,
GID117,
GID118,
GID119,
GID120,
GID121,
GID122,
GID123,
GID124,
GID125,
GID126,
GID127,
GID128,
GID129,
GID130,
GID131,
GID132,
GID133,
GID134,
GID135,
GID136,
GID137,
GID138,
GID139,
GID140,
GID141,
GID142,
GID143,
GID144,
GID145,
GID146,
GID147,
GID148,
GID149,
GID150,
GID151,
GID152,
GID153,
GID154,
GID155,
GID156,
GID157,
GID158,
GID159,
GID160,
GID161,
GID162,
GID163,
GID164,
GID165,
GID166,
GID167,
GID168,
GID169,
GID170,
GID171,
uni00A0,
GID173,
GID174,
GID175,
GID176,
GID177,
GID178,
GID179,
GID180,
GID181,
GID182,
GID183,
GID184,
GID185,
GID186,
GID187,
GID188,
GID189,
GID190,
GID191,
GID192,
GID193,
GID194,
GID195,
GID196,
GID197,
GID198,
GID199,
GID200,
GID201,
GID202,
GID203,
GID204,
GID205,
GID206,
GID207,
GID208,
GID209,
GID210,
GID211,
GID212,
GID213,
GID214,
GID215,
GID216,
GID217,
GID218,
GID219,
GID220,
GID221,
GID222,
GID223,
GID224,
GID225
);
}
);
date = "2024-12-01 20:33:28 +0000";
familyName = Le;
fontMaster = (
{
customParameters = (
{
name = typoAscender;
value = 720;
},
{
name = typoDescender;
value = -280;
},
{

glyphs = (
{
glyphname = A;
layers = (
{
layerId = m01;
shapes = (
{
closed = 1;
nodes = (
(522,7,l),
(526,0,l),
(595,40,l),
(353,624,l),
(349,631,l),
(280,591,l),
(39,6,l),
(43,-1,l),
(112,39,l),
(198,246,l),
(423,246,l)
);
},
{
closed = 1;
nodes = (
(310,519,l),
(404,293,l),
(217,293,l)
);
}
);
width = 635;
}
);
note = A;
unicode = 65;
},
{
glyphname = B;
layers = (
{
layerId = m01;
shapes = (
{
closed = 1;
nodes = (
(89,309,l),
(89,7,l),
(93,0,l),
(114,0,o),
(158,-1,o),
(171,-1,cs),
(231,-1,o),
(289,11,o),
(320,29,cs),
(390,69,ls),
(432,93,o),
(455,134,o),
(455,188,cs),
(455,261,o),
(408,316,o),
(328,339,c),
(355,354,ls),
(398,379,o),
(420,422,o),
(420,479,cs),
(420,562,o),
(345,617,o),
(233,617,cs),
(211,617,o),
(190,617,o),
(158,616,c),
(89,576,l),
(89,309,l)
);
},
{
closed = 1;
nodes = (
(237,297,l),
(295,288,o),
(342,260,o),
(365,222,cs),
(378,197,o),
(381,183,o),
(381,155,cs),
(381,117,o),
(369,81,o),
(348,61,c),
(321,51,o),
(286,46,o),
(237,46,cs),
(215,46,o),
(195,46,o),
(162,47,c),
(162,300,l)
);
},
{
closed = 1;
nodes = (
(303,345,l),
(162,349,l),
(162,570,l),
(248,570,o),
(304,547,o),
(333,501,c),
(343,480,o),
(347,466,o),
(347,445,cs),
(347,393,o),
(327,348,o),
(303,344,c)
);
}
);
width = 494;
}
);
note = B;
unicode = 66;
},
{
glyphname = C;
layers = (
{
layerId = m01;
shapes = (
{
closed = 1;
nodes = (
(245,578,o),
(289,586,o),
(340,586,cs),
(390,586,o),
(433,581,o),
(479,570,c),
(548,610,l),
(544,617,l),
(499,628,o),
(455,633,o),
(405,633,cs),
(339,633,o),
(282,619,o),
(231,590,cs),
(162,550,ls),
(85,505,o),
(39,409,o),
(39,293,cs),
(39,101,o),
(159,-20,o),
(348,-20,cs),
(398,-20,o),
(436,-14,o),
(487,1,c),
(557,41,l),
(553,47,l),
(497,32,o),
(463,27,o),
(413,27,cs),
(291,27,o),
(216,65,o),
(151,159,c),
(122,215,o),
(112,257,o),
(112,326,cs),
(112,425,o),
(150,519,o),
(205,562,c)
);
}
);
width = 591;
}
);
note = C;
unicode = 67;
},
{
glyphname = D;
layers = (
{
layerId = m01;
shapes = (
{
closed = 1;
nodes = (
(613,494,ls),
(562,584,o),
(478,618,o),
(312,618,cs),
(234,618,o),
(210,618,o),
(157,617,c),
(88,577,l),
(88,8,l),
(92,1,l),
(120,0,o),
(154,0,o),
(183,0,cs),
(351,0,o),
(395,7,o),
(454,41,cs),
(523,81,ls),
(609,130,o),
(653,220,o),
(653,344,cs),
(653,398,o),
(643,437,o),
(617,487,cs)
);
},
{
closed = 1;
nodes = (
(423,50,o),
(395,47,o),
(249,47,cs),
(224,47,o),
(179,47,o),
(167,48,cs),
(161,48,l),
(161,571,l),
(171,571,o),
(196,571,o),
(246,571,cs),
(413,571,o),
(484,542,o),
(546,451,c),
(571,400,o),
(580,365,o),
(580,311,cs),
(580,200,o),
(548,123,o),
(480,69,c)
);
}
);
width = 692;
}
);
note = D;
unicode = 68;
},
{
glyphname = E;
layers = (
{
layerId = m01;
shapes = (
{
closed = 1;
nodes = (
(88,7,l),
(92,0,l),
(384,0,l),
(453,40,l),
(449,47,l),
(161,47,l),
(161,300,l),
(374,300,l),
(443,340,l),
(439,347,l),
(161,347,l),
(161,569,l),
(385,569,l),
(454,609,l),
(450,616,l),
(157,616,l),
(88,576,l),
(88,307,l),
(88,307,l)
);
}
);
width = 542;
}
);
note = E;
unicode = 69;
},
{
glyphname = F;
layers = (
{
layerId = m01;
shapes = (
{
closed = 1;
nodes = (
(157,616,l),
(88,576,l),
(88,7,l),
(92,0,l),
(161,40,l),
(161,300,l),
(374,300,l),
(443,340,l),
(439,347,l),
(364,347,l),
(161,347,l),
(161,569,l),
(374,569,l),
(443,609,l),
(439,616,l)
);
}
);
width = 543;
}
);
note = F;
unicode = 70;
},
{
glyphname = G;
layers = (
{
layerId = m01;
shapes = (
{
closed = 1;
nodes = (
(526,32,l),
(501,29,o),
(479,27,o),
(448,27,cs),
(309,27,o),
(224,67,o),
(151,166,c),
(122,228,o),
(112,271,o),
(112,331,cs),
(112,422,o),
(150,513,o),
(205,553,cs),
(231,573,o),
(301,586,o),
(374,586,cs),
(428,586,o),
(475,581,o),
(529,570,c),
(598,610,l),
(594,617,l),
(541,628,o),
(494,633,o),
(439,633,cs),
(363,633,o),
(290,617,o),
(242,589,cs),
(173,549,ls),
(87,500,o),
(39,410,o),
(39,298,cs),
(39,101,o),
(170,-20,o),
(383,-20,cs),
(443,-20,o),
(481,-15,o),
(530,0,c),
(599,40,l),
(599,278,l),
(595,285,l),
(526,245,l)
);
}
);
width = 673;
}
);
note = G;
unicode = 71;
},
{
glyphname = H;
lastChange = "2025-01-08 08:51:16 +0000";
layers = (
{
background = {
shapes = (
{
closed = 1;
nodes = (
(161,609,l),
(157,616,l),
(88,576,l),
(88,7,l),
(92,0,l),
(161,40,l),
(161,304,l),
(575,304,l),
(575,7,l),
(579,0,l),
(649,40,l),
(649,609,l),
(645,616,l),
(575,576,l),
(575,351,l),
(161,351,l)
);
}
);
};
layerId = m01;
shapes = (
{
closed = 1;
nodes = (
(579,149,o),
(579,54,o),
(566,35,cs),
(555,21,o),
(536,15,o),
(501,12,c),
(501,-4,l),
(723,-4,l),
(723,12,l),
(688,15,o),
(670,21,o),
(660,35,cs),
(652,45,o),
(646,56,o),
(645,311,cs),
(645,472,o),
(645,567,o),
(658,586,cs),
(669,600,o),
(688,606,o),
(723,609,c),
(723,625,l),
(501,625,l),
(501,609,l),
(536,606,o),
(554,600,o),
(565,586,cs),
(572,576,o),
(578,565,o),
(579,311,cs)
);
},
{
closed = 1;
nodes = (
(92,151,o),
(92,57,o),
(79,39,cs),
(68,25,o),
(59,19,o),
(24,16,c),
(24,0,l),
(236,0,l),
(236,16,l),
(201,19,o),
(183,25,o),
(172,39,cs),
(165,49,o),
(159,60,o),
(158,311,cs),
(158,474,o),
(158,568,o),
(172,586,cs),
(182,600,o),
(201,606,o),
(236,609,c),
(236,625,l),
(14,625,l),
(14,609,l),
(49,606,o),
(67,600,o),
(78,586,cs),
(85,576,o),
(91,565,o),
(92,311,cs)
);
},
{
closed = 1;
nodes = (
(133,304,l),
(602,304,l),
(602,351,l),
(133,351,l)
);
}
);
width = 737;
},
{
associatedMasterId = m01;
background = {
shapes = (
{
closed = 1;
nodes = (
(161,609,l),
(157,616,l),
(88,576,l),
(88,7,l),
(92,0,l),
(161,40,l),
(161,304,l),
(575,304,l),
(575,7,l),
(579,0,l),
(649,40,l),
(649,609,l),
(645,616,l),
(575,576,l),
(575,351,l),
(161,351,l)
);
}
);
};
layerId = "ACF9F543-B4E8-4FE7-B8D2-ED4E742F9C44";
name = Grid;
shapes = (
{
closed = 1;
nodes = (
(577,149,o),
(577,54,o),
(564,35,cs),
(553,21,o),
(536,18,o),
(501,15,c),
(501,-4,l),
(723,-4,l),
(723,14,l),
(688,17,o),
(672,21,o),
(662,35,cs),
(654,45,o),
(648,56,o),
(647,311,cs),
(647,472,o),
(647,567,o),
(660,586,cs),
(671,600,o),
(688,604,o),
(723,607,c),
(723,625,l),
(501,625,l),
(501,607,l),
(536,604,o),
(552,600,o),
(563,586,cs),
(570,576,o),
(576,565,o),
(577,311,cs)
);
},
{
closed = 1;
nodes = (
(90,151,o),
(90,57,o),
(77,39,cs),
(66,25,o),
(59,21,o),
(24,18,c),
(24,0,l),
(236,0,l),
(236,18,l),
(201,21,o),
(185,25,o),
(174,39,cs),
(167,49,o),
(161,60,o),
(160,311,cs),
(160,474,o),
(160,568,o),
(174,586,cs),
(184,600,o),
(201,604,o),
(236,607,c),
(236,625,l),
(14,625,l),
(14,607,l),
(49,604,o),
(65,600,o),
(76,586,cs),
(83,576,o),
(89,565,o),
(90,311,cs)
);
},
{
closed = 1;
nodes = (
(133,304,l),
(602,304,l),
(602,351,l),
(133,351,l)
);
}
);
width = 737;
}
);
note = H;
unicode = 72;
},
{
glyphname = I;
layers = (
{
layerId = m01;
shapes = (
{
closed = 1;
nodes = (
(161,40,l),
(161,609,l),
(157,616,l),
(88,576,l),
(88,7,l),
(92,0,l)
);
}
);
width = 250;
}
);
note = I;
unicode = 73;
},
{
glyphname = J;
layers = (
{
layerId = m01;
shapes = (
{
closed = 1;
nodes = (
(52,-210,ls),
(114,-175,o),
(159,-84,o),
(170,25,cs),
(174,71,o),
(178,231,o),
(178,398,cs),
(178,515,o),
(177,562,o),
(177,600,c),
(173,607,l),
(103,567,l),
(104,522,o),
(104,522,o),
(104,462,cs),
(104,277,o),
(103,125,o),
(100,52,cs),
(95,-100,o),
(60,-185,o),
(-21,-243,c),
(-17,-250,l)
);
}
);
width = 266;
}
);
note = J;
unicode = 74;
},
{
glyphname = K;
layers = (
{
layerId = m01;
shapes = (
{
closed = 1;
nodes = (
(436,0,l),
(505,40,l),
(501,47,l),
(215,345,l),
(485,609,l),
(481,616,l),
(412,576,l),
(161,331,l),
(161,609,l),
(157,616,l),
(88,576,l),
(88,7,l),
(92,0,l),
(161,40,l),
(161,286,l)
);
}
);
width = 496;
}
);
note = K;
unicode = 75;
},
{
glyphname = L;
layers = (
{
layerId = m01;
shapes = (
{
closed = 1;
nodes = (
(161,47,l),
(161,609,l),
(157,616,l),
(88,576,l),
(88,7,l),
(92,0,l),
(374,0,l),
(443,40,l),
(439,47,l)
);
}
);
width = 543;
}
);
note = L;
unicode = 76;
},
{
glyphname = M;
layers = (
{
layerId = m01;
shapes = (
{
closed = 1;
nodes = (
(663,466,l),
(672,7,l),
(676,0,l),
(745,40,l),
(735,609,l),
(731,616,l),
(661,576,l),
(424,98,l),
(172,609,l),
(168,616,l),
(99,576,l),
(88,7,l),
(92,0,l),
(161,40,l),
(169,434,l),
(379,7,l),
(383,0,l),
(452,40,l),
(452,40,l)
);
}
);
width = 833;
}
);
note = M;
unicode = 77;
},
{
glyphname = N;
layers = (
{
layerId = m01;
shapes = (
{
closed = 1;
nodes = (
(578,-1,l),
(647,38,l),
(647,610,l),
(643,617,l),
(574,577,l),
(574,127,l),
(173,598,l),
(157,617,l),
(88,577,l),
(88,7,l),
(92,0,l),
(161,40,l),
(161,488,l)
);
}
);
width = 735;
}
);
note = N;
unicode = 78;
},
{
glyphname = O;
lastChange = "2025-01-08 09:11:11 +0000";
layers = (
{
background = {
shapes = (
{
closed = 1;
nodes = (
(637,111,o),
(692,209,o),
(695,323,c),
(692,395,o),
(681,434,o),
(651,483,cs),
(590,582,o),
(504,633,o),
(400,633,cs),
(351,633,o),
(303,621,o),
(262,597,cs),
(192,557,ls),
(166,542,o),
(114,495,o),
(97,471,cs),
(57,415,o),
(39,359,o),
(39,290,cs),
(39,121,o),
(174,-21,o),
(334,-21,cs),
(383,-21,o),
(435,-7,o),
(479,19,cs),
(548,59,ls)
);
},
{
closed = 1;
nodes = (
(473,32,o),
(441,26,o),
(400,26,cs),
(326,26,o),
(243,61,o),
(198,111,cs),
(186,123,o),
(173,141,o),
(153,168,c),
(122,236,o),
(112,271,o),
(112,323,cs),
(112,425,o),
(150,501,o),
(234,566,c),
(276,583,o),
(292,586,o),
(334,586,cs),
(439,586,o),
(520,538,o),
(584,438,c),
(611,389,o),
(622,347,o),
(622,289,cs),
(620,192,o),
(577,102,o),
(506,47,c)
);
}
);
};
layerId = m01;
shapes = (
{
closed = 1;
nodes = (
(187,-8,o),
(44,137,o),
(44,316,cs),
(44,493,o),
(187,633,o),
(368,633,cs),
(547,633,o),
(690,493,o),
(690,316,cs),
(690,137,o),
(547,-8,o),
(368,-8,cs)
);
},
{
closed = 1;
nodes = (
(497,37,o),
(598,159,o),
(598,310,cs),
(598,464,o),
(494,588,o),
(367,588,cs),
(236,588,o),
(136,464,o),
(136,312,cs),
(136,159,o),
(244,37,o),
(374,37,cs)
);
}
);
width = 735;
},
{
associatedMasterId = m01;
background = {
shapes = (
{
closed = 1;
nodes = (
(637,111,o),
(692,209,o),
(695,323,c),
(692,395,o),
(681,434,o),
(651,483,cs),
(590,582,o),
(504,633,o),
(400,633,cs),
(351,633,o),
(303,621,o),
(262,597,cs),
(192,557,ls),
(166,542,o),
(114,495,o),
(97,471,cs),
(57,415,o),
(39,359,o),
(39,290,cs),
(39,121,o),
(174,-21,o),
(334,-21,cs),
(383,-21,o),
(435,-7,o),
(479,19,cs),
(548,59,ls)
);
},
{
closed = 1;
nodes = (
(473,32,o),
(441,26,o),
(400,26,cs),
(326,26,o),
(243,61,o),
(198,111,cs),
(186,123,o),
(173,141,o),
(153,168,c),
(122,236,o),
(112,271,o),
(112,323,cs),
(112,425,o),
(150,501,o),
(234,566,c),
(276,583,o),
(292,586,o),
(334,586,cs),
(439,586,o),
(520,538,o),
(584,438,c),
(611,389,o),
(622,347,o),
(622,289,cs),
(620,192,o),
(577,102,o),
(506,47,c)
);
}
);
};
layerId = "836700B8-795F-4744-A585-DC1D1834289E";
name = Grid;
shapes = (
{
closed = 1;
nodes = (
(187,-8,o),
(44,137,o),
(44,316,cs),
(44,493,o),
(187,633,o),
(368,633,cs),
(547,633,o),
(690,493,o),
(690,316,cs),
(690,137,o),
(547,-8,o),
(368,-8,cs)
);
},
{
closed = 1;
nodes = (
(504,41,o),
(612,161,o),
(612,310,cs),
(612,462,o),
(500,584,o),
(367,584,cs),
(228,584,o),
(122,462,o),
(122,312,cs),
(122,161,o),
(235,41,o),
(374,41,cs)
);
}
);
width = 735;
}
);
note = O;
unicode = 79;
},
{
glyphname = P;
layers = (
{
layerId = m01;
shapes = (
{
closed = 1;
nodes = (
(389,602,o),
(371,611,o),
(297,616,cs),
(286,617,o),
(245,617,o),
(176,617,cs),
(157,617,l),
(88,577,l),
(88,7,l),
(92,0,l),
(161,40,l),
(161,262,l),
(181,260,o),
(200,258,o),
(208,258,cs),
(244,258,o),
(281,267,o),
(307,282,cs),
(376,322,ls),
(424,350,o),
(453,404,o),
(453,465,cs),
(453,497,o),
(447,523,o),
(433,547,cs),
(429,554,l)
);
},
{
closed = 1;
nodes = (
(377,476,o),
(380,463,o),
(380,432,cs),
(380,394,o),
(368,356,o),
(346,327,cs),
(335,311,o),
(320,305,o),
(289,305,cs),
(248,305,o),
(206,309,o),
(166,318,cs),
(161,319,l),
(161,570,l),
(290,571,o),
(323,561,o),
(362,509,c)
);
}
);
width = 444;
}
);
note = P;
unicode = 80;
},
{
glyphname = Q;
layers = (
{
layerId = m01;
shapes = (
{
closed = 1;
nodes = (
(637,111,o),
(692,209,o),
(695,323,c),
(692,395,o),
(681,434,o),
(651,483,cs),
(590,582,o),
(504,633,o),
(400,633,cs),
(351,633,o),
(303,620,o),
(262,597,cs),
(192,557,ls),
(166,542,o),
(114,495,o),
(97,470,cs),
(57,415,o),
(39,359,o),
(39,289,cs),
(39,121,o),
(174,-21,o),
(334,-21,cs),
(351,-21,o),
(359,-20,o),
(375,-18,c),
(381,-28,ls),
(391,-45,o),
(391,-45,o),
(395,-51,cs),
(400,-60,o),
(401,-61,o),
(403,-65,cs),
(440,-123,o),
(444,-128,o),
(466,-151,cs),
(491,-180,o),
(534,-206,o),
(575,-217,cs),
(583,-219,o),
(597,-221,o),
(617,-224,c),
(639,-223,o),
(653,-223,o),
(661,-221,cs),
(664,-220,l),
(733,-180,l),
(729,-173,l),
(719,-176,o),
(708,-176,o),
(682,-177,c),
(647,-173,o),
(634,-170,o),
(613,-161,cs),
(582,-148,o),
(558,-131,o),
(531,-105,c),
(512,-82,o),
(495,-60,o),
(477,-32,cs),
(469,-18,o),
(466,-13,o),
(458,0,cs),
(455,4,l),
(454,6,l),
(472,15,o),
(476,17,o),
(479,19,cs),
(548,59,ls)
);
},
{
closed = 1;
nodes = (
(487,38,o),
(466,33,o),
(440,29,cs),
(424,27,o),
(415,26,o),
(400,26,cs),
(326,26,o),
(243,60,o),
(198,111,cs),
(186,123,o),
(173,140,o),
(153,168,c),
(122,236,o),
(112,271,o),
(112,323,cs),
(112,424,o),
(150,501,o),
(234,566,c),
(276,583,o),
(292,586,o),
(334,586,cs),
(439,586,o),
(520,538,o),
(584,438,c),
(611,389,o),
(622,347,o),
(622,289,cs),
(620,192,o),
(577,102,o),
(506,47,c)
);
}
);
width = 735;
}
);
note = Q;
unicode = 81;
},
{
glyphname = R;
layers = (
{
layerId = m01;
shapes = (
{
closed = 1;
nodes = (
(278,257,l),
(391,93,o),
(494,-1,o),
(562,-1,cs),
(565,-1,o),
(568,-1,o),
(571,-1,c),
(640,39,l),
(636,46,l),
(632,46,o),
(629,46,o),
(628,46,cs),
(626,46,o),
(626,46,o),
(625,46,c),
(625,46,o),
(624,46,o),
(624,46,c),
(621,45,o),
(619,45,o),
(616,45,cs),
(565,45,o),
(440,161,o),
(353,290,c),
(401,318,ls),
(450,346,o),
(480,401,o),
(480,460,cs),
(480,536,o),
(441,591,o),
(373,608,cs),
(338,617,o),
(338,617,o),
(168,617,cs),
(157,617,l),
(88,577,l),
(88,275,l),
(88,273,l),
(88,6,l),
(92,-1,l),
(162,39,l),
(162,263,l)
);
},
{
closed = 1;
nodes = (
(161,570,l),
(214,570,ls),
(313,570,o),
(346,558,o),
(389,505,c),
(404,472,o),
(407,458,o),
(407,426,cs),
(407,368,o),
(380,314,o),
(347,305,cs),
(343,304,l),
(162,314,l)
);
}
);
width = 639;
}
);
note = R;
unicode = 82;
},
{
glyphname = S;
layers = (
{
layerId = m01;
shapes = (
{
closed = 1;
nodes = (
(440,235,ls),
(419,271,o),
(401,285,o),
(292,348,cs),
(221,390,o),
(198,408,o),
(181,434,c),
(169,460,o),
(167,469,o),
(167,493,cs),
(167,526,o),
(176,551,o),
(196,572,c),
(218,579,o),
(245,582,o),
(276,582,cs),
(310,582,o),
(310,582,o),
(360,575,cs),
(361,575,l),
(430,615,l),
(426,622,l),
(425,622,ls),
(409,626,o),
(372,629,o),
(341,629,cs),
(295,629,o),
(246,619,o),
(217,602,cs),
(148,562,ls),
(146,561,o),
(144,558,o),
(123,537,cs),
(100,513,o),
(93,496,o),
(93,460,cs),
(93,388,o),
(115,366,o),
(288,266,cs),
(331,240,o),
(352,221,o),
(373,190,c),
(385,165,o),
(389,151,o),
(389,125,cs),
(389,96,o),
(376,56,o),
(362,43,cs),
(354,36,o),
(335,32,o),
(302,32,cs),
(256,32,o),
(217,41,o),
(157,65,c),
(88,25,l),
(92,18,l),
(154,-6,o),
(189,-14,o),
(237,-14,cs),
(270,-14,o),
(307,-5,o),
(332,10,cs),
(402,50,ls),
(442,73,o),
(462,109,o),
(462,158,cs),
(462,185,o),
(459,198,o),
(444,228,cs)
);
}
);
width = 542;
}
);
note = S;
unicode = 83;
},
{
glyphname = T;
layers = (
{
layerId = m01;
shapes = (
{
closed = 1;
nodes = (
(385,570,l),
(454,610,l),
(450,617,l),
(60,617,l),
(-9,577,l),
(-5,570,l),
(186,570,l),
(186,7,l),
(190,0,l),
(259,40,l),
(259,570,l)
);
}
);
width = 445;
}
);
note = T;
unicode = 84;
},
{
glyphname = U;
layers = (
{
layerId = m01;
shapes = (
{
closed = 1;
nodes = (
(493,44,o),
(449,37,o),
(401,37,cs),
(292,37,o),
(236,60,o),
(188,122,c),
(169,168,o),
(164,188,o),
(164,284,cs),
(164,316,o),
(165,356,o),
(166,408,cs),
(166,416,o),
(166,447,o),
(166,494,cs),
(165,529,o),
(166,584,o),
(167,609,c),
(163,616,l),
(93,576,l),
(93,553,o),
(92,500,o),
(92,461,cs),
(92,414,o),
(92,382,o),
(92,375,cs),
(91,343,o),
(91,314,o),
(91,287,cs),
(91,169,o),
(100,109,o),
(120,78,cs),
(159,19,o),
(228,-10,o),
(336,-10,cs),
(401,-10,o),
(455,3,o),
(496,26,cs),
(565,66,ls),
(591,81,o),
(604,94,o),
(625,122,c),
(650,163,o),
(654,188,o),
(654,328,cs),
(654,360,o),
(654,360,o),
(652,609,c),
(648,616,l),
(579,576,l),
(580,422,o),
(580,337,o),
(580,295,cs),
(580,153,o),
(577,131,o),
(552,89,c),
(539,72,o),
(533,64,o),
(524,56,c)
);
}
);
width = 738;
}
);
note = U;
unicode = 85;
},
{
glyphname = V;
layers = (
{
layerId = m01;
shapes = (
{
closed = 1;
nodes = (
(64,609,l),
(60,616,l),
(-9,576,l),
(186,7,l),
(190,0,l),
(259,40,l),
(453,609,l),
(449,616,l),
(380,576,l),
(228,131,l)
);
}
);
width = 445;
}
);
note = V;
unicode = 86;
},
{
glyphname = W;
layers = (
{
layerId = m01;
shapes = (
{
closed = 1;
nodes = (
(452,607,l),
(453,609,l),
(449,616,l),
(448,616,l),
(378,576,l),
(379,574,l),
(228,131,l),
(64,609,l),
(60,616,l),
(-9,576,l),
(186,7,l),
(190,0,l),
(259,40,l),
(410,483,l),
(573,7,l),
(577,0,l),
(647,40,l),
(841,609,l),
(837,616,l),
(767,576,l),
(615,131,l)
);
}
);
width = 831;
}
);
note = W;
unicode = 87;
},
{
glyphname = X;
layers = (
{
layerId = m01;
shapes = (
{
closed = 1;
nodes = (
(-9,7,l),
(-5,0,l),
(64,40,l),
(211,254,l),
(385,0,l),
(454,40,l),
(450,47,l),
(259,325,l),
(454,609,l),
(450,616,l),
(380,576,l),
(234,362,l),
(60,616,l),
(-9,576,l),
(-5,569,l),
(185,291,l)
);
}
);
width = 444;
}
);
note = X;
unicode = 88;
},
{
glyphname = Y;
layers = (
{
layerId = m01;
shapes = (
{
closed = 1;
nodes = (
(449,609,l),
(445,616,l),
(375,576,l),
(229,351,l),
(60,616,l),
(-9,576,l),
(-5,569,l),
(180,278,l),
(180,7,l),
(184,0,l),
(254,40,l),
(254,311,l)
);
}
);
width = 439;
}
);
note = Y;
unicode = 89;
},
{
glyphname = Z;
layers = (
{
layerId = m01;
shapes = (
{
closed = 1;
nodes = (
(-4,0,l),
(429,0,l),
(498,40,l),
(494,47,l),
(70,47,l),
(455,609,l),
(451,616,l),
(60,616,l),
(-9,576,l),
(-5,569,l),
(377,569,l),
(-8,7,l)
);
}
);
width = 489;
}
);
note = Z;
unicode = 90;
},
{
glyphname = a;
lastChange = "2025-01-08 08:55:35 +0000";
layers = (
{
background = {
shapes = (
{
closed = 1;
nodes = (
(55,0,o),
(83,-11,o),
(130,-11,cs),
(178,-11,o),
(209,1,o),
(253,37,c),
(252,38,ls),
(276,17,o),
(293,7,o),
(323,-3,c),
(397,40,l),
(360,52,o),
(344,60,o),
(321,80,c),
(321,344,l),
(271,384,o),
(244,395,o),
(196,395,cs),
(147,395,o),
(118,384,o),
(70,345,c),
(73,340,l),
(100,347,o),
(112,349,o),
(130,349,cs),
(176,349,o),
(208,337,o),
(249,304,c),
(249,184,l),
(249,185,l),
(4,44,l),
(7,38,l)
);
},
{
closed = 1;
nodes = (
(249,176,l),
(249,42,l),
(249,43,l),
(225,37,o),
(214,35,o),
(196,35,cs),
(151,35,o),
(118,47,o),
(79,78,c)
);
},
{
closed = 0;
nodes = (
(16,98,ls),
(16,38,o),
(71,-5,o),
(143,-7,cs),
(191,-7,o),
(229,16,o),
(255,41,cs),
(274,60,l),
(254,70,l),
(235,53,o),
(208,40,o),
(178,40,cs),
(139,41,o),
(91,71,o),
(91,99,cs)
);
}
);
};
layerId = m01;
shapes = (
{
closed = 1;
nodes = (
(94,331,o),
(127,349,o),
(163,349,cs),
(192,349,o),
(217,342,o),
(234,323,cs),
(254,302,o),
(252,259,o),
(250,205,cs),
(248,161,o),
(245,84,o),
(253,56,c),
(263,33,o),
(272,23,o),
(285,12,cs),
(302,-2,o),
(323,-8,o),
(343,-8,cs),
(366,-8,o),
(388,2,o),
(398,18,c),
(398,34,l),
(374,34,o),
(350,44,o),
(338,57,cs),
(325,72,o),
(317,87,o),
(318,163,cs),
(319,237,o),
(326,305,o),
(304,341,cs),
(280,377,o),
(238,394,o),
(194,394,cs),
(143,394,o),
(93,368,o),
(66,341,c),
(76,313,l)
);
},
{
closed = 1;
nodes = (
(197,-8,o),
(231,18,o),
(255,41,cs),
(274,60,l),
(255,74,l),
(242,57,o),
(212,40,o),
(178,40,cs),
(146,40,o),
(110,58,o),
(111,101,cs),
(112,137,o),
(150,180,o),
(265,189,c,{
name = "15";
}),
(265,218,l),
(179,202,o),
(155,195,o),
(112,175,cs),
(53,148,o),
(38,99,o),
(44,62,cs),
(51,17,o,{
name = "14";
}),
(89,-6,o),
(139,-7,cs)
);
}
);
width = 408;
},
{
associatedMasterId = m01;
background = {
shapes = (
{
closed = 1;
nodes = (
(55,0,o),
(83,-11,o),
(130,-11,cs),
(178,-11,o),
(209,1,o),
(253,37,c),
(252,38,ls),
(276,17,o),
(293,7,o),
(323,-3,c),
(397,40,l),
(360,52,o),
(344,60,o),
(321,80,c),
(321,344,l),
(271,384,o),
(244,395,o),
(196,395,cs),
(147,395,o),
(118,384,o),
(70,345,c),
(73,340,l),
(100,347,o),
(112,349,o),
(130,349,cs),
(176,349,o),
(208,337,o),
(249,304,c),
(249,184,l),
(249,185,l),
(4,44,l),
(7,38,l)
);
},
{
closed = 1;
nodes = (
(249,176,l),
(249,42,l),
(249,43,l),
(225,37,o),
(214,35,o),
(196,35,cs),
(151,35,o),
(118,47,o),
(79,78,c)
);
},
{
closed = 0;
nodes = (
(16,98,ls),
(16,38,o),
(71,-5,o),
(143,-7,cs),
(191,-7,o),
(229,16,o),
(255,41,cs),
(274,60,l),
(254,70,l),
(235,53,o),
(208,40,o),
(178,40,cs),
(139,41,o),
(91,71,o),
(91,99,cs)
);
}
);
};
layerId = "520EB439-A089-4CB3-B8D9-76331F4CE948";
name = Grid;
shapes = (
{
closed = 1;
nodes = (
(98,331,o),
(127,349,o),
(163,349,cs),
(192,349,o),
(214,342,o),
(231,323,cs),
(251,302,o),
(249,259,o),
(247,205,cs),
(245,161,o),
(242,84,o),
(250,56,c),
(260,33,o),
(268,23,o),
(281,12,cs),
(298,-2,o),
(316,-8,o),
(336,-8,cs),
(359,-8,o),
(375,2,o),
(385,18,c),
(385,35,l),
(361,35,o),
(347,44,o),
(335,57,cs),
(322,72,o),
(314,87,o),
(315,163,cs),
(316,237,o),
(323,305,o),
(301,341,cs),
(277,377,o),
(238,394,o),
(194,394,cs),
(143,394,o),
(97,368,o),
(70,341,c),
(80,313,l)
);
},
{
closed = 1;
nodes = (
(197,-8,o),
(231,18,o),
(255,41,cs),
(274,60,l),
(255,74,l),
(242,57,o),
(212,40,o),
(178,40,cs),
(146,40,o),
(104,58,o),
(105,101,cs),
(106,144,o),
(151,180,o),
(265,189,c,{
name = "15";
}),
(265,218,l),
(179,202,o),
(148,195,o),
(105,175,cs),
(44,147,o),
(31,101,o),
(37,62,cs),
(44,17,o,{
name = "14";
}),
(89,-6,o),
(139,-7,cs)
);
}
);
width = 403;
}
);
note = a;
unicode = 97;
},
{
glyphname = b;
lastChange = "2025-01-08 08:58:23 +0000";
layers = (
{
background = {
shapes = (
{
closed = 1;
nodes = (
(135,1,o),
(164,-11,o),
(212,-11,cs),
(259,-11,o),
(291,1,o),
(335,36,c),
(417,68,o),
(461,128,o),
(461,210,cs),
(461,310,o),
(377,395,o),
(278,395,cs),
(231,395,o),
(200,383,o),
(158,350,c),
(158,664,l),
(132,687,o),
(116,697,o),
(85,707,c),
(11,664,l),
(48,652,o),
(63,644,o),
(86,624,c),
(86,40,l)
);
},
{
closed = 1;
nodes = (
(182,347,o),
(194,349,o),
(212,349,cs),
(312,349,o),
(389,273,o),
(389,174,cs),
(389,125,o),
(370,82,o),
(331,43,c),
(307,37,o),
(295,35,o),
(278,35,cs),
(231,35,o),
(200,47,o),
(158,80,c),
(158,342,l),
(159,341,l)
);
},
{
closed = 0;
nodes = (
(89,305,ls),
(89,60,o),
(89,54,o),
(82,44,c)
);
}
);
};
layerId = m01;
shapes = (
{
closed = 1;
nodes = (
(326,347,o),
(390,289,o),
(390,188,cs),
(390,104,o),
(349,33,o),
(262,33,cs),
(222,33,o),
(184,47,o),
(156,71,c),
(155,175,o),
(155,211,o),
(156,308,c),
(171,327,o),
(209,347,o),
(254,347,cs)
);
},
{
closed = 1;
nodes = (
(103,30,o),
(146,-9,o),
(236,-9,cs),
(333,-9,o),
(458,58,o),
(458,219,cs),
(458,324,o),
(394,395,o),
(292,395,cs),
(222,395,o),
(180,359,o),
(156,336,c),
(155,528,o),
(156,574,o),
(157,707,c),
(11,663,l),
(11,647,l),
(33,647,o),
(58,643,o),
(71,628,cs),
(95,602,o),
(89,517,o),
(89,305,cs),
(89,70,o),
(87,54,o),
(86,44,c)
);
}
);
width = 490;
},
{
associatedMasterId = m01;
background = {
shapes = (
{
closed = 1;
nodes = (
(135,1,o),
(164,-11,o),
(212,-11,cs),
(259,-11,o),
(291,1,o),
(335,36,c),
(417,68,o),
(461,128,o),
(461,210,cs),
(461,310,o),
(377,395,o),
(278,395,cs),
(231,395,o),
(200,383,o),
(158,350,c),
(158,664,l),
(132,687,o),
(116,697,o),
(85,707,c),
(11,664,l),
(48,652,o),
(63,644,o),
(86,624,c),
(86,40,l)
);
},
{
closed = 1;
nodes = (
(182,347,o),
(194,349,o),
(212,349,cs),
(312,349,o),
(389,273,o),
(389,174,cs),
(389,125,o),
(370,82,o),
(331,43,c),
(307,37,o),
(295,35,o),
(278,35,cs),
(231,35,o),
(200,47,o),
(158,80,c),
(158,342,l),
(159,341,l)
);
},
{
closed = 0;
nodes = (
(89,305,ls),
(89,60,o),
(89,54,o),
(82,44,c)
);
}
);
};
layerId = "87F4FE99-AEB8-47C6-9091-6CBC91401552";
name = Grid;
shapes = (
{
closed = 1;
nodes = (
(326,347,o),
(386,289,o),
(386,188,cs),
(386,104,o),
(349,33,o),
(262,33,cs),
(222,33,o),
(185,47,o),
(157,71,c),
(156,175,o),
(156,211,o),
(157,308,c),
(172,327,o),
(209,347,o),
(254,347,cs)
);
},
{
closed = 1;
nodes = (
(102,30,o),
(146,-9,o),
(236,-9,cs),
(333,-9,o),
(457,58,o),
(457,219,cs),
(457,324,o),
(394,395,o),
(292,395,cs),
(222,395,o),
(181,359,o),
(157,336,c),
(156,528,o),
(157,574,o),
(158,707,c),
(18,663,l),
(18,645,l),
(40,645,o),
(57,643,o),
(70,628,cs),
(94,602,o),
(88,517,o),
(88,305,cs),
(88,70,o),
(86,54,o),
(85,44,c)
);
}
);
width = 490;
}
);
note = b;
unicode = 98;
},
{
glyphname = c;
lastChange = "2025-01-07 16:16:42 +0000";
layers = (
{
background = {
shapes = (
{
closed = 1;
nodes = (
(354,384,o),
(327,395,o),
(278,395,cs),
(230,395,o),
(199,383,o),
(155,347,c),
(73,316,o),
(29,256,o),
(29,174,cs),
(29,74,o),
(113,-11,o),
(212,-11,cs),
(262,-11,o),
(288,-1,o),
(338,39,c),
(335,44,l),
(331,44,o),
(328,43,o),
(327,42,c),
(310,37,o),
(296,35,o),
(278,35,cs),
(178,35,o),
(101,111,o),
(101,210,cs),
(101,259,o),
(120,302,o),
(159,341,c),
(183,347,o),
(194,349,o),
(212,349,cs),
(261,349,o),
(290,337,o),
(335,301,c),
(406,342,l)
);
}
);
};
layerId = m01;
shapes = (
{
closed = 1;
nodes = (
(305,336,o),
(328,301,c),
(343,303,o),
(381,327,o),
(386,341,c),
(360,381,o),
(309,395,o),
(264,394,cs),
(158,392,o),
(32,322,o),
(32,169,cs),
(32,49,o),
(121,-9,o),
(212,-9,cs),
(266,-9,o),
(334,3,o),
(378,74,c),
(378,102,l),
(363,86,o),
(318,40,o),
(245,40,cs),
(157,40,o),
(100,100,o),
(100,195,cs),
(100,281,o),
(157,349,o),
(240,349,cs),
(276,349,o)
);
},
{
closed = 1;
nodes = (
(556,36,o),
(502,91,o),
(501,195,cs),
(500,279,o),
(542,350,o),
(629,350,cs),
(684,350,o),
(731,325,o),
(755,279,c),
(779,358,l),
(755,374,o),
(711,392,o),
(655,392,cs),
(558,392,o),
(433,325,o),
(433,164,cs),
(433,59,o),
(497,-12,o),
(599,-12,cs),
(673,-12,o),
(715,28,o),
(740,51,c),
(745,60,l),
(735,75,l),
(720,56,o),
(682,36,o),
(637,36,cs)
);
}
);
width = 410;
},
{
associatedMasterId = m01;
background = {
shapes = (
{
closed = 1;
nodes = (
(354,384,o),
(327,395,o),
(278,395,cs),
(230,395,o),
(199,383,o),
(155,347,c),
(73,316,o),
(29,256,o),
(29,174,cs),
(29,74,o),
(113,-11,o),
(212,-11,cs),
(262,-11,o),
(288,-1,o),
(338,39,c),
(335,44,l),
(331,44,o),
(328,43,o),
(327,42,c),
(310,37,o),
(296,35,o),
(278,35,cs),
(178,35,o),
(101,111,o),
(101,210,cs),
(101,259,o),
(120,302,o),
(159,341,c),
(183,347,o),
(194,349,o),
(212,349,cs),
(261,349,o),
(290,337,o),
(335,301,c),
(406,342,l)
);
}
);
};
layerId = "D8316A83-5DC5-4B46-BB9B-467D844F3E15";
name = "second try";
shapes = (
{
closed = 1;
nodes = (
(309,333,o),
(328,300,c),
(343,297,o),
(391,325,o),
(396,339,c),
(364,384,o),
(309,395,o),
(270,395,cs),
(170,395,o),
(30,328,o),
(30,176,cs),
(30,52,o),
(122,-8,o),
(212,-8,cs),
(271,-8,o),
(324,6,o),
(378,74,c),
(378,102,l),
(356,78,o),
(318,40,o),
(245,40,cs),
(154,40,o),
(101,98,o),
(100,195,cs),
(100,281,o),
(157,348,o),
(240,348,cs),
(279,348,o)
);
}
);
width = 410;
},
{
associatedMasterId = m01;
background = {
shapes = (
{
closed = 1;
nodes = (
(354,384,o),
(327,395,o),
(278,395,cs),
(230,395,o),
(199,383,o),
(155,347,c),
(73,316,o),
(29,256,o),
(29,174,cs),
(29,74,o),
(113,-11,o),
(212,-11,cs),
(262,-11,o),
(288,-1,o),
(338,39,c),
(335,44,l),
(331,44,o),
(328,43,o),
(327,42,c),
(310,37,o),
(296,35,o),
(278,35,cs),
(178,35,o),
(101,111,o),
(101,210,cs),
(101,259,o),
(120,302,o),
(159,341,c),
(183,347,o),
(194,349,o),
(212,349,cs),
(261,349,o),
(290,337,o),
(335,301,c),
(406,342,l)
);
}
);
};
layerId = "33002501-0556-44CC-9E85-0899125D3C5F";
name = "5 Jan 25 at 12:24";
shapes = (
{
closed = 1;
nodes = (
(273,347,o),
(307,334,o),
(328,299,c),
(343,301,o),
(381,335,o),
(386,349,c),
(357,384,o),
(306,395,o),
(264,394,cs),
(158,392,o),
(32,322,o),
(32,169,cs),
(32,49,o),
(121,-9,o),
(212,-9,cs),
(266,-9,o),
(334,3,o),
(378,74,c),
(378,102,l),
(363,86,o),
(318,40,o),
(245,40,cs),
(157,40,o),
(102,100,o),
(102,195,cs),
(102,281,o),
(157,347,o),
(240,347,cs)
);
}
);
width = 410;
}
);
note = c;
unicode = 99;
},
{
glyphname = d;
layers = (
{
layerId = m01;
shapes = (
{
closed = 1;
nodes = (
(308,393,o),
(296,395,o),
(278,395,cs),
(231,395,o),
(199,383,o),
(155,347,c),
(73,316,o),
(29,256,o),
(29,174,cs),
(29,74,o),
(113,-11,o),
(212,-11,cs),
(260,-11,o),
(291,1,o),
(335,37,c),
(334,38,ls),
(356,18,o),
(377,6,o),
(405,-3,c),
(479,40,l),
(442,52,o),
(427,60,o),
(403,80,c),
(403,664,l),
(377,687,o),
(361,697,o),
(330,707,c),
(256,664,l),
(293,652,o),
(308,644,o),
(331,624,c),
(331,386,l),
(331,387,l)
);
},
{
closed = 1;
nodes = (
(308,37,o),
(296,35,o),
(278,35,cs),
(178,35,o),
(101,111,o),
(101,210,cs),
(101,259,o),
(120,302,o),
(159,341,c),
(183,347,o),
(194,349,o),
(212,349,cs),
(258,349,o),
(290,337,o),
(331,304,c),
(331,42,l),
(331,43,l)
);
}
);
width = 490;
}
);
note = d;
unicode = 100;
},
{
glyphname = e;
lastChange = "2025-01-08 08:41:57 +0000";
layers = (
{
background = {
shapes = (
{
closed = 1;
nodes = (
(106,168,l),
(404,340,l),
(401,346,l),
(361,380,o),
(323,395,o),
(278,395,cs),
(231,395,o),
(199,383,o),
(155,348,c),
(72,315,o),
(29,256,o),
(29,174,cs),
(29,74,o),
(113,-11,o),
(212,-11,cs),
(261,-11,o),
(291,1,o),
(338,39,c),
(335,44,l),
(306,37,o),
(297,35,o),
(278,35,cs),
(193,35,o),
(127,87,o),
(105,170,c)
);
},
{
closed = 1;
nodes = (
(104,177,l),
(102,192,o),
(101,198,o),
(101,210,cs),
(101,259,o),
(120,301,o),
(159,341,c),
(183,347,o),
(195,349,o),
(212,349,cs),
(257,349,o),
(289,337,o),
(329,306,c)
);
}
);
};
hints = (
{
place = (386,30);
type = Stem;
}
);
layerId = m01;
shapes = (
{
closed = 1;
nodes = (
(154,39,o),
(101,98,o),
(100,195,cs),
(100,210,o),
(101,224,o),
(103,237,c),
(386,236,l),
(386,359,o),
(307,395,o),
(238,395,cs),
(162,395,o),
(32,328,o),
(32,180,cs),
(32,54,o),
(118,-9,o),
(212,-9,cs),
(266,-9,o),
(321,3,o),
(378,74,c),
(378,102,l),
(363,86,o),
(318,41,o),
(245,40,cs)
);
},
{
closed = 1;
nodes = (
(123,314,o),
(162,355,o),
(216,355,cs),
(275,355,o),
(303,318,o),
(307,264,c),
(107,260,l)
);
}
);
width = 408;
},
{
associatedMasterId = m01;
background = {
shapes = (
{
closed = 1;
nodes = (
(106,168,l),
(404,340,l),
(401,346,l),
(361,380,o),
(323,395,o),
(278,395,cs),
(231,395,o),
(199,383,o),
(155,348,c),
(72,315,o),
(29,256,o),
(29,174,cs),
(29,74,o),
(113,-11,o),
(212,-11,cs),
(261,-11,o),
(291,1,o),
(338,39,c),
(335,44,l),
(306,37,o),
(297,35,o),
(278,35,cs),
(193,35,o),
(127,87,o),
(105,170,c)
);
},
{
closed = 1;
nodes = (
(104,177,l),
(102,192,o),
(101,198,o),
(101,210,cs),
(101,259,o),
(120,301,o),
(159,341,c),
(183,347,o),
(195,349,o),
(212,349,cs),
(257,349,o),
(289,337,o),
(329,306,c)
);
}
);
};
hints = (
{
place = (386,30);
type = Stem;
}
);
layerId = "8ECE8AD0-B92D-4A68-A171-AEA6144F6A5D";
name = Grid;
shapes = (
{
closed = 1;
nodes = (
(157,39,o),
(104,98,o),
(103,195,cs),
(103,210,o),
(103,224,o),
(105,237,c),
(385,236,l),
(385,359,o),
(310,395,o),
(241,395,cs),
(165,395,o),
(35,328,o),
(35,180,cs),
(35,54,o),
(121,-9,o),
(215,-9,cs),
(269,-9,o),
(328,3,o),
(385,74,c),
(385,102,l),
(370,86,o),
(321,41,o),
(248,40,cs)
);
},
{
closed = 1;
nodes = (
(123,314,o),
(165,355,o),
(219,355,cs),
(278,355,o),
(313,318,o),
(317,264,c),
(107,260,l)
);
}
);
width = 403;
}
);
note = e;
unicode = 101;
},
{
glyphname = f;
lastChange = "2025-01-08 08:46:48 +0000";
layers = (
{
background = {
shapes = (
{
closed = 1;
nodes = (
(86,386,l),
(86,387,l),
(13,346,l),
(16,341,l),
(86,341,l),
(86,40,l),
(111,18,o),
(130,7,o),
(159,-3,c),
(234,40,l),
(197,52,o),
(181,60,o),
(158,80,c),
(158,342,l),
(159,341,l),
(265,341,l),
(338,382,l),
(335,387,l),
(158,387,l),
(158,662,l),
(159,661,l),
(182,667,o),
(193,669,o),
(212,669,cs),
(260,669,o),
(289,657,o),
(335,621,c),
(406,662,l),
(352,705,o),
(327,715,o),
(277,715,cs),
(230,715,o),
(198,703,o),
(155,667,c),
(86,628,l)
);
},
{
closed = 0;
nodes = (
(155,344,ls),
(153,517,o),
(155,571,o),
(157,658,c),
(153,713,l),
(11,669,l),
(11,653,l),
(33,653,o),
(58,649,o),
(71,634,cs),
(95,608,o),
(89,556,o),
(89,344,cs)
);
},
{
closed = 1;
nodes = (
(335,666,o),
(390,611,o),
(390,507,cs),
(390,423,o),
(349,352,o),
(262,352,cs),
(207,352,o),
(160,377,o),
(136,423,c),
(112,344,l),
(136,328,o),
(180,310,o),
(236,310,cs),
(333,310,o),
(458,377,o),
(458,538,cs),
(458,643,o),
(394,714,o),
(292,714,cs),
(218,714,o),
(176,674,o),
(151,651,c),
(146,642,l),
(156,627,l),
(171,646,o),
(209,666,o),
(254,666,cs)
);
},
{
closed = 0;
nodes = (
(76,39,ls),
(65,25,o),
(46,19,o),
(11,16,c),
(11,0,l),
(253,0,l),
(253,16,l),
(219,19,o),
(184,29,o),
(172,43,cs)
);
}
);
};
layerId = m01;
shapes = (
{
closed = 1;
nodes = (
(160,429,o),
(157,521,o),
(165,570,cs),
(173,613,o),
(205,667,o),
(273,665,cs),
(307,663,o),
(327,650,o),
(348,622,c),
(363,618,o),
(409,642,o),
(414,656,c),
(383,701,o),
(328,713,o),
(289,714,cs),
(199,715,o),
(97,630,o),
(92,478,cs),
(91,445,o),
(90,432,o),
(90,399,c),
(69,383,o),
(45,370,o),
(16,363,c),
(16,347,l),
(89,346,l),
(87,252,ls),
(87,62,o),
(83,49,o),
(76,39,cs),
(65,25,o),
(46,19,o),
(11,16,c),
(11,0,l),
(253,0,l),
(253,16,l),
(218,19,o),
(184,30,o),
(172,43,cs),
(164,52,o),
(157,58,o),
(157,250,cs),
(159,345,l),
(341,342,l),
(341,384,l),
(160,387,l)
);
}
);
width = 337;
},
{
associatedMasterId = m01;
background = {
shapes = (
{
closed = 1;
nodes = (
(86,386,l),
(86,387,l),
(13,346,l),
(16,341,l),
(86,341,l),
(86,40,l),
(111,18,o),
(130,7,o),
(159,-3,c),
(234,40,l),
(197,52,o),
(181,60,o),
(158,80,c),
(158,342,l),
(159,341,l),
(265,341,l),
(338,382,l),
(335,387,l),
(158,387,l),
(158,662,l),
(159,661,l),
(182,667,o),
(193,669,o),
(212,669,cs),
(260,669,o),
(289,657,o),
(335,621,c),
(406,662,l),
(352,705,o),
(327,715,o),
(277,715,cs),
(230,715,o),
(198,703,o),
(155,667,c),
(86,628,l)
);
},
{
closed = 0;
nodes = (
(155,344,ls),
(153,517,o),
(155,571,o),
(157,658,c),
(153,713,l),
(11,669,l),
(11,653,l),
(33,653,o),
(58,649,o),
(71,634,cs),
(95,608,o),
(89,556,o),
(89,344,cs)
);
},
{
closed = 1;
nodes = (
(335,666,o),
(390,611,o),
(390,507,cs),
(390,423,o),
(349,352,o),
(262,352,cs),
(207,352,o),
(160,377,o),
(136,423,c),
(112,344,l),
(136,328,o),
(180,310,o),
(236,310,cs),
(333,310,o),
(458,377,o),
(458,538,cs),
(458,643,o),
(394,714,o),
(292,714,cs),
(218,714,o),
(176,674,o),
(151,651,c),
(146,642,l),
(156,627,l),
(171,646,o),
(209,666,o),
(254,666,cs)
);
},
{
closed = 0;
nodes = (
(76,39,ls),
(65,25,o),
(46,19,o),
(11,16,c),
(11,0,l),
(253,0,l),
(253,16,l),
(219,19,o),
(184,29,o),
(172,43,cs)
);
}
);
};
layerId = "822E6EFE-F3C0-4D75-A62A-3D9B96196B17";
name = Grid;
shapes = (
{
closed = 1;
nodes = (
(158,429,o),
(155,521,o),
(163,570,cs),
(171,613,o),
(205,667,o),
(273,665,cs),
(307,663,o),
(327,650,o),
(348,622,c),
(363,618,o),
(409,642,o),
(414,656,c),
(383,701,o),
(328,713,o),
(289,714,cs),
(199,715,o),
(95,630,o),
(90,478,cs),
(89,445,o),
(88,432,o),
(88,399,c),
(67,383,o),
(47,370,o),
(18,363,c),
(18,347,l),
(88,346,l),
(87,252,ls),
(85,62,o),
(83,49,o),
(76,39,cs),
(65,25,o),
(53,21,o),
(18,18,c),
(18,0,l),
(245,0,l),
(245,18,l),
(210,21,o),
(184,30,o),
(172,43,cs),
(164,52,o),
(155,58,o),
(157,250,cs),
(158,345,l),
(315,345,l),
(315,387,l),
(158,387,l)
);
}
);
width = 315;
}
);
note = f;
unicode = 102;
},
{
glyphname = g;
lastChange = "2025-01-08 08:40:33 +0000";
layers = (
{
background = {
shapes = (
{
closed = 1;
nodes = (
(354,384,o),
(326,395,o),
(278,395,cs),
(230,395,o),
(199,383,o),
(155,347,c),
(73,316,o),
(29,256,o),
(29,174,cs),
(29,74,o),
(113,-11,o),
(212,-11,cs),
(258,-11,o),
(290,1,o),
(331,34,c),
(331,-238,l),
(331,-237,l),
(308,-243,o),
(296,-245,o),
(278,-245,cs),
(230,-245,o),
(201,-234,o),
(155,-197,c),
(84,-238,l),
(136,-280,o),
(164,-291,o),
(212,-291,cs),
(260,-291,o),
(291,-279,o),
(335,-244,c),
(403,-204,l),
(403,344,l)
);
},
{
closed = 1;
nodes = (
(308,37,o),
(296,35,o),
(278,35,cs),
(178,35,o),
(101,111,o),
(101,210,cs),
(101,259,o),
(120,302,o),
(159,341,c),
(183,347,o),
(194,349,o),
(212,349,cs),
(258,349,o),
(290,337,o),
(331,304,c),
(331,42,l),
(331,43,l)
);
}
);
};
layerId = m01;
shapes = (
{
closed = 1;
nodes = (
(151,134,l),
(128,118,o),
(108,101,o),
(108,72,cs),
(108,31,o),
(169,11,o),
(239,3,cs),
(358,-9,o),
(460,-20,o),
(460,-120,cs),
(460,-208,o),
(352,-288,o),
(239,-290,cs),
(125,-292,o),
(36,-251,o),
(36,-152,cs),
(36,-98,o),
(65,-60,o),
(114,-26,c),
(77,-13,o),
(53,18,o),
(53,49,cs),
(53,97,o),
(92,125,o),
(125,147,c)
);
},
{
closed = 1;
nodes = (
(93,-206,o),
(176,-241,o),
(239,-241,cs),
(330,-241,o),
(395,-210,o),
(395,-148,cs),
(394,-70,o),
(304,-66,o),
(239,-57,cs),
(182,-49,o),
(163,-44,o),
(138,-38,c),
(109,-65,o),
(93,-93,o),
(93,-132,cs)
);
},
{
closed = 1;
nodes = (
(150,106,o),
(77,171,o),
(77,252,cs),
(77,331,o),
(150,394,o),
(239,394,cs),
(327,394,o),
(400,331,o),
(400,252,cs),
(400,171,o),
(327,106,o),
(239,106,cs)
);
},
{
closed = 1;
nodes = (
(292,141,o),
(335,190,o),
(335,248,cs),
(335,311,o),
(290,360,o),
(239,360,cs),
(185,360,o),
(142,311,o),
(142,251,cs),
(142,190,o),
(188,141,o),
(239,141,cs)
);
},
{
closed = 1;
nodes = (
(460,387,l),
(460,337,l),
(339,336,l),
(331,353,l)
);
}
);
width = 490;
},
{
associatedMasterId = m01;
background = {
shapes = (
{
closed = 1;
nodes = (
(354,384,o),
(326,395,o),
(278,395,cs),
(230,395,o),
(199,383,o),
(155,347,c),
(73,316,o),
(29,256,o),
(29,174,cs),
(29,74,o),
(113,-11,o),
(212,-11,cs),
(258,-11,o),
(290,1,o),
(331,34,c),
(331,-238,l),
(331,-237,l),
(308,-243,o),
(296,-245,o),
(278,-245,cs),
(230,-245,o),
(201,-234,o),
(155,-197,c),
(84,-238,l),
(136,-280,o),
(164,-291,o),
(212,-291,cs),
(260,-291,o),
(291,-279,o),
(335,-244,c),
(403,-204,l),
(403,344,l)
);
},
{
closed = 1;
nodes = (
(308,37,o),
(296,35,o),
(278,35,cs),
(178,35,o),
(101,111,o),
(101,210,cs),
(101,259,o),
(120,302,o),
(159,341,c),
(183,347,o),
(194,349,o),
(212,349,cs),
(258,349,o),
(290,337,o),
(331,304,c),
(331,42,l),
(331,43,l)
);
}
);
};
layerId = "6052568E-6176-4426-BB07-96ACC5BA4864";
name = Grid;
shapes = (
{
closed = 1;
nodes = (
(151,134,l),
(128,118,o),
(106,101,o),
(106,72,cs),
(106,31,o),
(169,10,o),
(239,3,cs),
(353,-9,o),
(455,-20,o),
(455,-120,cs),
(455,-208,o),
(352,-288,o),
(239,-290,cs),
(125,-292,o),
(36,-251,o),
(36,-152,cs),
(36,-98,o),
(65,-60,o),
(114,-26,c),
(77,-13,o),
(53,18,o),
(53,49,cs),
(53,97,o),
(92,125,o),
(125,147,c)
);
},
{
closed = 1;
nodes = (
(96,-206,o),
(176,-241,o),
(239,-241,cs),
(330,-241,o),
(393,-210,o),
(393,-148,cs),
(392,-70,o),
(304,-66,o),
(239,-57,cs),
(182,-49,o),
(163,-44,o),
(138,-38,c),
(109,-65,o),
(96,-93,o),
(96,-132,cs)
);
},
{
closed = 1;
nodes = (
(150,106,o),
(70,171,o),
(70,252,cs),
(70,331,o),
(150,394,o),
(239,394,cs),
(327,394,o),
(403,331,o),
(403,252,cs),
(403,171,o),
(327,106,o),
(239,106,cs)
);
},
{
closed = 1;
nodes = (
(292,141,o),
(333,190,o),
(333,248,cs),
(333,311,o),
(290,360,o),
(239,360,cs),
(185,360,o),
(141,311,o),
(141,251,cs),
(141,190,o),
(188,141,o),
(239,141,cs)
);
},
{
closed = 1;
nodes = (
(455,387,l),
(455,337,l),
(339,336,l),
(331,353,l)
);
}
);
width = 490;
}
);
note = g;
unicode = 103;
},
{
glyphname = h;
lastChange = "2025-01-05 13:55:59 +0000";
layers = (
{
background = {
shapes = (
{
closed = 1;
nodes = (
(233,0,l),
(233,16,l),
(198,19,o),
(180,25,o),
(169,39,cs),
(162,49,o),
(154,60,o),
(154,185,cs),
(154,259,o),
(156,281,o),
(158,310,c),
(176,330,o),
(207,347,o),
(241,347,cs),
(275,347,o),
(301,333,o),
(315,315,cs),
(331,294,o),
(334,269,o),
(334,185,cs),
(334,60,o),
(328,49,o),
(321,39,cs),
(310,25,o),
(290,19,o),
(256,16,c),
(256,0,l),
(478,0,l),
(478,16,l),
(444,19,o),
(423,26,o),
(414,38,cs),
(405,50,o),
(401,58,o),
(404,185,cs),
(406,262,o),
(408,310,o),
(386,343,cs),
(362,379,o),
(320,394,o),
(276,394,cs),
(224,395,o),
(183,367,o),
(157,338,c),
(153,394,l),
(11,350,l),
(11,334,l),
(33,334,o),
(58,328,o),
(70,316,cs),
(87,299,o),
(89,254,o),
(89,185,cs),
(89,60,o),
(83,49,o),
(76,39,cs),
(65,25,o),
(46,19,o),
(11,16,c),
(11,0,l)
);
}
);
};
layerId = m01;
shapes = (
{
closed = 1;
nodes = (
(233,0,l),
(233,16,l),
(198,19,o),
(180,25,o),
(169,39,cs),
(162,49,o),
(154,60,o),
(154,185,cs),
(154,227,o),
(155,267,o),
(157,309,c),
(175,330,o),
(209,347,o),
(241,347,cs),
(275,347,o),
(301,333,o),
(315,315,cs),
(331,294,o),
(334,269,o),
(334,185,cs),
(334,60,o),
(328,49,o),
(321,39,cs),
(310,25,o),
(290,19,o),
(256,16,c),
(256,0,l),
(478,0,l),
(478,16,l),
(444,19,o),
(423,26,o),
(414,38,cs),
(405,50,o),
(401,58,o),
(404,185,cs),
(406,262,o),
(408,310,o),
(386,343,cs),
(362,379,o),
(320,394,o),
(276,394,cs),
(229,395,o),
(182,369,o),
(156,337,c),
(154,542,o),
(155,571,o),
(155,707,c),
(11,663,l),
(11,647,l),
(33,647,o),
(58,643,o),
(71,628,cs),
(95,602,o),
(89,517,o),
(89,305,cs),
(89,60,o),
(85,50,o),
(76,39,cs),
(64,25,o),
(46,19,o),
(11,16,c),
(11,0,l)
);
}
);
width = 490;
}
);
note = h;
unicode = 104;
},
{
glyphname = i;
lastChange = "2025-01-08 09:04:26 +0000";
layers = (
{
guides = (
{
pos = (134,633);
}
);
layerId = m01;
shapes = (
{
closed = 1;
nodes = (
(233,0,l),
(233,16,l),
(198,19,o),
(180,25,o),
(169,39,cs),
(162,49,o),
(155,60,o),
(155,185,cs),
(155,259,o),
(155,375,o),
(155,394,c),
(11,350,l),
(11,334,l),
(33,334,o),
(58,328,o),
(70,316,cs),
(87,299,o),
(89,254,o),
(89,185,cs),
(89,60,o),
(83,49,o),
(76,39,cs),
(65,25,o),
(46,19,o),
(11,16,c),
(11,0,l)
);
},
{
closed = 1;
nodes = (
(147,540,o),
(168,561,o),
(168,587,cs),
(168,612,o),
(147,633,o),
(122,633,cs),
(96,633,o),
(75,612,o),
(75,587,cs),
(75,561,o),
(96,540,o),
(122,540,cs)
);
}
);
width = 245;
},
{
associatedMasterId = m01;
guides = (
{
pos = (134,633);
}
);
layerId = "B3FFC0D4-D454-4228-B06D-680085C1068D";
name = Grid;
shapes = (
{
closed = 1;
nodes = (
(228,0,l),
(228,18,l),
(193,21,o),
(180,25,o),
(169,39,cs),
(162,49,o),
(156,60,o),
(156,185,cs),
(156,259,o),
(155,375,o),
(155,394,c),
(11,350,l),
(11,332,l),
(33,332,o),
(58,328,o),
(70,316,cs),
(87,299,o),
(88,254,o),
(88,185,cs),
(88,60,o),
(83,49,o),
(76,39,cs),
(65,25,o),
(52,21,o),
(17,18,c),
(17,0,l)
);
},
{
closed = 1;
nodes = (
(147,540,o),
(168,561,o),
(168,587,cs),
(168,612,o),
(147,633,o),
(122,633,cs),
(96,633,o),
(75,612,o),
(75,587,cs),
(75,561,o),
(96,540,o),
(122,540,cs)
);
}
);
width = 245;
}
);
note = i;
unicode = 105;
},
{
glyphname = j;
lastChange = "2025-01-05 12:00:01 +0000";
layers = (
{
background = {
shapes = (
{
closed = 1;
nodes = (
(86,-245,l),
(158,-204,l),
(158,344,l),
(132,367,o),
(116,377,o),
(85,387,c),
(11,344,l),
(48,332,o),
(63,324,o),
(86,304,c)
);
}
);
};
layerId = m01;
shapes = (
{
closed = 1;
nodes = (
(39,-274,o),
(84,-244,o),
(116,-176,cs),
(134,-137,o),
(157,-78,o),
(157,-10,cs),
(157,19,o),
(156,111,o),
(156,185,cs),
(156,239,o),
(155,375,o),
(155,394,c),
(11,350,l),
(11,334,l),
(33,334,o),
(58,328,o),
(70,316,cs),
(87,299,o),
(89,254,o),
(89,185,cs),
(89,-50,o),
(94,-79,o),
(77,-146,cs),
(52,-244,o),
(33,-256,o),
(12,-267,c),
(12,-283,l)
);
},
{
closed = 1;
nodes = (
(147,540,o),
(168,561,o),
(168,587,cs),
(168,612,o),
(147,633,o),
(122,633,cs),
(96,633,o),
(75,612,o),
(75,587,cs),
(75,561,o),
(96,540,o),
(122,540,cs)
);
}
);
width = 245;
}
);
note = j;
unicode = 106;
},
{
glyphname = k;
layers = (
{
layerId = m01;
shapes = (
{
closed = 1;
nodes = (
(403,340,l),
(405,342,l),
(375,369,o),
(362,376,o),
(330,387,c),
(256,344,l),
(292,333,o),
(307,324,o),
(329,306,c),
(158,198,l),
(158,664,l),
(131,687,o),
(116,697,o),
(85,707,c),
(11,664,l),
(48,652,o),
(64,644,o),
(86,624,c),
(86,40,l),
(113,17,o),
(129,7,o),
(160,-3,c),
(234,40,l),
(197,52,o),
(181,60,o),
(158,80,c),
(158,190,l),
(159,189,l),
(159,189,l),
(334,38,ls),
(358,17,o),
(374,7,o),
(404,-3,c),
(479,40,l),
(440,53,o),
(425,61,o),
(400,83,cs),
(230,230,l)
);
}
);
width = 490;
}
);
note = k;
unicode = 107;
},
{
glyphname = l;
lastChange = "2025-01-05 12:01:53 +0000";
layers = (
{
background = {
shapes = (
{
closed = 1;
nodes = (
(86,40,l),
(111,18,o),
(130,7,o),
(160,-3,c),
(234,40,l),
(196,52,o),
(182,60,o),
(158,80,c),
(158,664,l),
(132,687,o),
(116,697,o),
(85,707,c),
(11,664,l),
(48,652,o),
(63,644,o),
(86,624,c)
);
},
{
closed = 0;
nodes = (
(89,185,ls),
(89,60,o),
(83,49,o),
(76,39,cs),
(65,25,o),
(46,19,o),
(11,16,c),
(11,0,l),
(233,0,l),
(233,16,l),
(198,19,o),
(180,25,o),
(169,39,cs),
(162,49,o),
(155,60,o),
(155,185,cs)
);
},
{
closed = 0;
nodes = (
(155,498,ls),
(155,572,o),
(155,688,o),
(155,707,c),
(11,663,l),
(11,647,l),
(33,647,o),
(58,641,o),
(70,629,cs),
(87,612,o),
(89,567,o),
(89,498,cs)
);
}
);
};
layerId = m01;
shapes = (
{
closed = 1;
nodes = (
(233,0,l),
(233,16,l),
(198,19,o),
(180,25,o),
(169,39,cs),
(162,49,o),
(156,60,o),
(155,305,cs),
(154,522,o),
(155,568,o),
(157,707,c),
(11,663,l),
(11,647,l),
(33,647,o),
(58,643,o),
(71,628,cs),
(95,602,o),
(89,517,o),
(89,305,cs),
(89,60,o),
(83,49,o),
(76,39,cs),
(65,25,o),
(46,19,o),
(11,16,c),
(11,0,l)
);
}
);
width = 245;
}
);
note = l;
unicode = 108;
},
{
glyphname = m;
lastChange = "2025-01-08 08:57:15 +0000";
layers = (
{
background = {
shapes = (
{
closed = 1;
nodes = (
(86,40,l),
(111,18,o),
(130,7,o),
(160,-3,c),
(234,40,l),
(196,52,o),
(182,60,o),
(158,80,c),
(158,342,l),
(159,341,l),
(182,347,o),
(194,349,o),
(212,349,cs),
(258,349,o),
(290,337,o),
(331,304,c),
(331,40,l),
(356,18,o),
(375,6,o),
(404,-3,c),
(479,40,l),
(441,52,o),
(426,60,o),
(403,80,c),
(403,342,l),
(404,341,l),
(427,347,o),
(438,349,o),
(457,349,cs),
(503,349,o),
(535,337,o),
(576,304,c),
(576,40,l),
(601,18,o),
(620,7,o),
(649,-3,c),
(723,40,l),
(687,52,o),
(671,60,o),
(648,80,c),
(648,344,l),
(598,384,o),
(570,395,o),
(522,395,cs),
(475,395,o),
(443,383,o),
(400,347,c),
(401,346,ls),
(356,382,o),
(323,395,o),
(278,395,cs),
(230,395,o),
(199,383,o),
(155,347,c),
(156,346,ls),
(132,367,o),
(114,377,o),
(85,387,c),
(11,344,l),
(48,332,o),
(63,324,o),
(86,304,c)
);
}
);
};
layerId = m01;
shapes = (
{
closed = 1;
nodes = (
(233,0,l),
(233,16,l),
(198,19,o),
(180,25,o),
(169,39,cs),
(162,49,o),
(154,60,o),
(154,185,cs),
(154,259,o),
(156,281,o),
(158,310,c),
(176,330,o),
(207,347,o),
(241,347,cs),
(275,347,o),
(301,333,o),
(315,315,cs),
(331,294,o),
(334,269,o),
(334,185,cs),
(334,60,o),
(328,49,o),
(321,39,cs),
(310,25,o),
(290,19,o),
(256,16,c),
(256,0,l),
(478,0,l),
(478,16,l),
(444,19,o),
(423,26,o),
(414,38,cs),
(405,50,o),
(401,58,o),
(404,185,cs),
(406,262,o),
(408,310,o),
(386,343,cs),
(362,379,o),
(320,394,o),
(275,394,cs),
(222,395,o),
(183,367,o),
(157,338,c),
(153,394,l),
(11,350,l),
(11,334,l),
(33,334,o),
(58,328,o),
(70,316,cs),
(87,299,o),
(89,254,o),
(89,185,cs),
(89,60,o),
(83,49,o),
(76,39,cs),
(65,25,o),
(46,19,o),
(11,16,c),
(11,0,l)
);
},
{
closed = 1;
nodes = (
(388,297,l),
(401,309,l),
(419,329,o),
(450,347,o),
(485,347,cs),
(519,347,o),
(545,333,o),
(559,315,cs),
(575,294,o),
(578,269,o),
(578,185,cs),
(578,60,o),
(572,49,o),
(565,39,cs),
(554,25,o),
(534,19,o),
(500,16,c),
(500,0,l),
(722,0,l),
(722,16,l),
(688,19,o),
(667,26,o),
(658,38,cs),
(649,50,o),
(645,58,o),
(648,185,cs),
(650,262,o),
(652,310,o),
(630,343,cs),
(606,379,o),
(564,394,o),
(518,394,cs),
(466,395,o),
(427,368,o),
(401,339,c),
(379,314,l)
);
}
);
width = 734;
},
{
associatedMasterId = m01;
background = {
shapes = (
{
closed = 1;
nodes = (
(86,40,l),
(111,18,o),
(130,7,o),
(160,-3,c),
(234,40,l),
(196,52,o),
(182,60,o),
(158,80,c),
(158,342,l),
(159,341,l),
(182,347,o),
(194,349,o),
(212,349,cs),
(258,349,o),
(290,337,o),
(331,304,c),
(331,40,l),
(356,18,o),
(375,6,o),
(404,-3,c),
(479,40,l),
(441,52,o),
(426,60,o),
(403,80,c),
(403,342,l),
(404,341,l),
(427,347,o),
(438,349,o),
(457,349,cs),
(503,349,o),
(535,337,o),
(576,304,c),
(576,40,l),
(601,18,o),
(620,7,o),
(649,-3,c),
(723,40,l),
(687,52,o),
(671,60,o),
(648,80,c),
(648,344,l),
(598,384,o),
(570,395,o),
(522,395,cs),
(475,395,o),
(443,383,o),
(400,347,c),
(401,346,ls),
(356,382,o),
(323,395,o),
(278,395,cs),
(230,395,o),
(199,383,o),
(155,347,c),
(156,346,ls),
(132,367,o),
(114,377,o),
(85,387,c),
(11,344,l),
(48,332,o),
(63,324,o),
(86,304,c)
);
}
);
};
layerId = "01A90973-E0F9-4AF8-AE42-F8F264ECD3FC";
name = Grid;
shapes = (
{
closed = 1;
nodes = (
(227,0,l),
(227,18,l),
(192,21,o),
(183,25,o),
(172,39,cs),
(165,49,o),
(157,60,o),
(157,185,cs),
(157,259,o),
(159,281,o),
(161,310,c),
(179,330,o),
(207,347,o),
(241,347,cs),
(275,347,o),
(299,333,o),
(313,315,cs),
(329,294,o),
(332,269,o),
(332,185,cs),
(332,60,o),
(326,49,o),
(319,39,cs),
(308,25,o),
(297,21,o),
(263,18,c),
(263,0,l),
(472,0,l),
(472,18,l),
(438,21,o),
(421,26,o),
(412,38,cs),
(403,50,o),
(399,58,o),
(402,185,cs),
(404,262,o),
(406,310,o),
(384,343,cs),
(360,379,o),
(320,394,o),
(275,394,cs),
(222,395,o),
(183,367,o),
(157,338,c),
(153,394,l),
(18,350,l),
(18,332,l),
(40,332,o),
(56,328,o),
(68,316,cs),
(85,299,o),
(87,254,o),
(87,185,cs),
(87,60,o),
(81,49,o),
(74,39,cs),
(63,25,o),
(53,21,o),
(18,18,c),
(18,0,l)
);
},
{
closed = 1;
nodes = (
(388,297,l),
(401,309,l),
(419,329,o),
(450,347,o),
(485,347,cs),
(519,347,o),
(544,333,o),
(558,315,cs),
(574,294,o),
(577,269,o),
(577,185,cs),
(577,60,o),
(571,49,o),
(564,39,cs),
(553,25,o),
(542,21,o),
(508,18,c),
(508,0,l),
(718,0,l),
(718,18,l),
(684,21,o),
(667,26,o),
(658,38,cs),
(649,50,o),
(645,58,o),
(648,185,cs),
(650,262,o),
(652,310,o),
(630,343,cs),
(606,379,o),
(564,394,o),
(518,394,cs),
(466,395,o),
(427,368,o),
(401,339,c),
(379,314,l)
);
}
);
width = 718;
}
);
note = m;
unicode = 109;
},
{
glyphname = n;
lastChange = "2025-01-08 08:46:40 +0000";
layers = (
{
background = {
shapes = (
{
closed = 1;
nodes = (
(86,40,l),
(111,18,o),
(130,7,o),
(160,-3,c),
(234,40,l),
(196,52,o),
(182,60,o),
(158,80,c),
(158,342,l),
(159,341,l),
(182,347,o),
(194,349,o),
(212,349,cs),
(258,349,o),
(290,337,o),
(331,304,c),
(331,40,l),
(356,18,o),
(375,6,o),
(404,-3,c),
(479,40,l),
(441,52,o),
(426,60,o),
(403,80,c),
(403,344,l),
(353,384,o),
(326,395,o),
(278,395,cs),
(230,395,o),
(199,383,o),
(155,347,c),
(156,346,ls),
(132,367,o),
(114,377,o),
(85,387,c),
(11,344,l),
(48,332,o),
(63,324,o),
(86,304,c)
);
}
);
};
layerId = m01;
shapes = (
{
closed = 1;
nodes = (
(233,0,l),
(233,16,l),
(198,19,o),
(180,25,o),
(169,39,cs),
(162,49,o),
(154,60,o),
(154,185,cs),
(154,259,o),
(156,281,o),
(158,310,c),
(176,330,o),
(207,347,o),
(241,347,cs),
(275,347,o),
(301,333,o),
(315,315,cs),
(331,294,o),
(334,269,o),
(334,185,cs),
(334,60,o),
(328,49,o),
(321,39,cs),
(310,25,o),
(290,19,o),
(256,16,c),
(256,0,l),
(478,0,l),
(478,16,l),
(444,19,o),
(423,26,o),
(414,38,cs),
(405,50,o),
(401,58,o),
(404,185,cs),
(406,262,o),
(408,310,o),
(386,343,cs),
(362,379,o),
(320,394,o),
(276,394,cs),
(224,395,o),
(183,367,o),
(157,338,c),
(153,394,l),
(11,350,l),
(11,334,l),
(33,334,o),
(58,328,o),
(70,316,cs),
(87,299,o),
(89,254,o),
(89,185,cs),
(89,60,o),
(83,49,o),
(76,39,cs),
(65,25,o),
(46,19,o),
(11,16,c),
(11,0,l)
);
}
);
width = 490;
},
{
associatedMasterId = m01;
background = {
shapes = (
{
closed = 1;
nodes = (
(86,40,l),
(111,18,o),
(130,7,o),
(160,-3,c),
(234,40,l),
(196,52,o),
(182,60,o),
(158,80,c),
(158,342,l),
(159,341,l),
(182,347,o),
(194,349,o),
(212,349,cs),
(258,349,o),
(290,337,o),
(331,304,c),
(331,40,l),
(356,18,o),
(375,6,o),
(404,-3,c),
(479,40,l),
(441,52,o),
(426,60,o),
(403,80,c),
(403,344,l),
(353,384,o),
(326,395,o),
(278,395,cs),
(230,395,o),
(199,383,o),
(155,347,c),
(156,346,ls),
(132,367,o),
(114,377,o),
(85,387,c),
(11,344,l),
(48,332,o),
(63,324,o),
(86,304,c)
);
}
);
};
layerId = "E0F005A8-37AC-40B9-8C8F-A9B99AE14A2B";
name = Grid;
shapes = (
{
closed = 1;
nodes = (
(227,0,l),
(227,18,l),
(193,21,o),
(176,21,o),
(169,39,cs),
(165,49,o),
(157,60,o),
(157,185,cs),
(157,259,o),
(159,281,o),
(161,310,c),
(179,330,o),
(207,347,o),
(241,347,cs),
(275,347,o),
(300,333,o),
(314,315,cs),
(330,294,o),
(332,269,o),
(332,185,cs),
(332,60,o),
(327,49,o),
(320,39,cs),
(309,25,o),
(297,21,o),
(263,18,c),
(263,0,l),
(472,0,l),
(472,18,l),
(438,21,o),
(422,26,o),
(413,38,cs),
(404,50,o),
(400,58,o),
(403,185,cs),
(405,262,o),
(407,310,o),
(385,343,cs),
(361,379,o),
(319,394,o),
(276,394,cs),
(224,394,o),
(183,367,o),
(157,338,c),
(153,394,l),
(18,350,l),
(18,334,l),
(40,334,o),
(58,328,o),
(70,316,cs),
(87,299,o),
(87,254,o),
(87,185,cs),
(87,60,o),
(81,49,o),
(76,39,cs),
(68,23,o),
(53,21,o),
(18,18,c),
(18,0,l)
);
}
);
width = 490;
}
);
note = n;
unicode = 110;
},
{
glyphname = o;
lastChange = "2025-01-08 08:44:09 +0000";
layers = (
{
background = {
shapes = (
{
closed = 1;
nodes = (
(73,316,o),
(29,256,o),
(29,174,cs),
(29,74,o),
(113,-11,o),
(212,-11,cs),
(260,-11,o),
(291,1,o),
(335,36,c),
(418,68,o),
(461,128,o),
(461,210,cs),
(461,310,o),
(377,395,o),
(278,395,cs),
(230,395,o),
(199,383,o),
(155,347,c)
);
},
{
closed = 1;
nodes = (
(183,347,o),
(194,349,o),
(212,349,cs),
(312,349,o),
(389,273,o),
(389,174,cs),
(389,125,o),
(370,82,o),
(331,43,c),
(307,37,o),
(295,35,o),
(278,35,cs),
(178,35,o),
(101,111,o),
(101,210,cs),
(101,259,o),
(120,302,o),
(159,341,c)
);
},
{
closed = 1;
nodes = (
(330,34,o),
(378,99,o),
(378,177,cs),
(378,259,o),
(320,353,o),
(233,353,cs),
(162,353,o),
(114,287,o),
(114,210,cs),
(114,129,o),
(173,34,o),
(260,34,cs)
);
}
);
};
layerId = m01;
shapes = (
{
closed = 1;
nodes = (
(134,-8,o),
(44,83,o),
(44,195,cs),
(44,306,o),
(134,394,o),
(247,394,cs),
(359,394,o),
(449,306,o),
(449,195,cs),
(449,83,o),
(359,-8,o),
(247,-8,cs)
);
},
{
closed = 1;
nodes = (
(320,28,o),
(378,101,o),
(378,191,cs),
(378,285,o),
(318,359,o),
(246,359,cs),
(172,359,o),
(115,285,o),
(115,194,cs),
(115,101,o),
(177,28,o),
(250,28,cs)
);
}
);
width = 490;
},
{
associatedMasterId = m01;
background = {
shapes = (
{
closed = 1;
nodes = (
(73,316,o),
(29,256,o),
(29,174,cs),
(29,74,o),
(113,-11,o),
(212,-11,cs),
(260,-11,o),
(291,1,o),
(335,36,c),
(418,68,o),
(461,128,o),
(461,210,cs),
(461,310,o),
(377,395,o),
(278,395,cs),
(230,395,o),
(199,383,o),
(155,347,c)
);
},
{
closed = 1;
nodes = (
(183,347,o),
(194,349,o),
(212,349,cs),
(312,349,o),
(389,273,o),
(389,174,cs),
(389,125,o),
(370,82,o),
(331,43,c),
(307,37,o),
(295,35,o),
(278,35,cs),
(178,35,o),
(101,111,o),
(101,210,cs),
(101,259,o),
(120,302,o),
(159,341,c)
);
},
{
closed = 1;
nodes = (
(330,34,o),
(378,99,o),
(378,177,cs),
(378,259,o),
(320,353,o),
(233,353,cs),
(162,353,o),
(114,287,o),
(114,210,cs),
(114,129,o),
(173,34,o),
(260,34,cs)
);
}
);
};
layerId = "48DC5DF7-3D53-4E91-9146-5B17C7932BCA";
name = Grid;
shapes = (
{
closed = 1;
nodes = (
(134,-8,o),
(44,83,o),
(44,195,cs),
(44,306,o),
(134,394,o),
(247,394,cs),
(359,394,o),
(449,306,o),
(449,195,cs),
(449,83,o),
(359,-8,o),
(247,-8,cs)
);
},
{
closed = 1;
nodes = (
(320,28,o),
(378,101,o),
(378,191,cs),
(378,285,o),
(318,359,o),
(246,359,cs),
(173,359,o),
(116,285,o),
(116,194,cs),
(116,101,o),
(178,28,o),
(250,28,cs)
);
}
);
width = 490;
}
);
note = o;
unicode = 111;
},
{
glyphname = p;
lastChange = "2025-01-07 16:16:13 +0000";
layers = (
{
background = {
shapes = (
{
closed = 1;
nodes = (
(86,-240,l),
(111,-262,o),
(130,-273,o),
(160,-283,c),
(234,-240,l),
(196,-228,o),
(182,-220,o),
(158,-200,c),
(158,-2,l),
(159,-3,l),
(182,-9,o),
(194,-11,o),
(212,-11,cs),
(259,-11,o),
(291,1,o),
(335,36,c),
(417,68,o),
(461,128,o),
(461,210,cs),
(461,310,o),
(377,395,o),
(278,395,cs),
(230,395,o),
(199,383,o),
(155,347,c),
(156,346,ls),
(132,367,o),
(114,377,o),
(85,387,c),
(11,344,l),
(48,332,o),
(63,324,o),
(86,304,c)
);
},
{
closed = 1;
nodes = (
(182,347,o),
(194,349,o),
(212,349,cs),
(312,349,o),
(389,273,o),
(389,174,cs),
(389,125,o),
(370,82,o),
(331,43,c),
(307,37,o),
(295,35,o),
(278,35,cs),
(231,35,o),
(200,47,o),
(158,80,c),
(158,342,l),
(159,341,l)
);
},
{
closed = 1;
nodes = (
(370,367,l),
(346,389,o),
(313,395,o),
(286,395,cs),
(239,395,o),
(188,378,o),
(156,342,c),
(157,323,l),
(173,336,o),
(202,350,o),
(236,350,cs),
(265,350,o),
(303,336,o),
(320,307,c)
);
}
);
};
layerId = m01;
shapes = (
{
closed = 1;
nodes = (
(253,-280,l),
(253,-264,l),
(218,-259,o),
(189,-255,o),
(174,-240,cs),
(160,-226,o),
(155,-220,o),
(155,25,cs),
(155,242,o),
(155,255,o),
(155,394,c),
(11,350,l),
(11,334,l),
(33,334,o),
(58,330,o),
(71,315,cs),
(95,289,o),
(89,237,o),
(89,25,cs),
(89,-220,o),
(83,-231,o),
(76,-241,cs),
(65,-255,o),
(46,-261,o),
(11,-264,c),
(11,-280,l)
);
},
{
closed = 1;
nodes = (
(336,350,o),
(389,288,o),
(390,191,cs),
(391,87,o),
(331,29,o),
(256,29,cs),
(218,29,o),
(164,41,o),
(136,94,c),
(112,25,l),
(136,9,o),
(180,-9,o),
(236,-9,cs),
(336,-9,o),
(458,56,o),
(458,219,cs),
(458,324,o),
(384,395,o),
(286,395,cs),
(238,395,o),
(185,375,o),
(153,342,c),
(146,333,l),
(147,313,l),
(156,322,ls),
(172,336,o),
(200,349,o),
(244,349,cs)
);
},
{
closed = 1;
nodes = (
(-389,353,l,{
name = "13";
}),
(-389,337,l,{
name = "13";
}),
(-376,334,o,{
name = "14";
}),
(-363,329,o,{
name = "14";
}),
(-351,322,cs,{
name = "15";
}),
(-324,305,o,{
name = "14";
}),
(-323,299,o,{
name = "14";
}),
(-323,55,cs,{
name = "15";
}),
(-323,-227,o,{
name = "14";
}),
(-325,-233,o,{
name = "14";
}),
(-346,-245,cs,{
name = "15";
}),
(-358,-251,o,{
name = "14";
}),
(-373,-256,o,{
name = "14";
}),
(-389,-260,c,{
name = "13";
}),
(-389,-276,l,{
name = "13";
}),
(-168,-276,l,{
name = "13";
}),
(-168,-261,l,{
name = "13";
}),
(-186,-256,o,{
name = "14";
}),
(-219,-253,o,{
name = "14";
}),
(-231,-245,cs,{
name = "15";
}),
(-239,-240,o,{
name = "14";
}),
(-243,-233,o,{
name = "14";
}),
(-245,-224,cs,{
name = "15";
}),
(-250,-201,o,{
name = "14";
}),
(-250,-175,o,{
name = "14";
}),
(-251,-153,cs,{
name = "15";
}),
(-252,-101,o,{
name = "14";
}),
(-253,-47,o,{
name = "14";
}),
(-253,5,c,{
name = "13";
}),
(-235,0,o,{
name = "14";
}),
(-225,-13,o,{
name = "14";
}),
(-143,-9,cs,{
name = "15";
}),
(-28,-3,o,{
name = "14";
}),
(42,86,o,{
name = "14";
}),
(49,189,cs,{
name = "15";
}),
(55,282,o,{
name = "14";
}),
(13,398,o,{
name = "14";
}),
(-114,398,cs,{
name = "15";
}),
(-178,398,o,{
name = "14";
}),
(-223,367,o,{
name = "14";
}),
(-252,336,c,{
name = "13";
}),
(-252,354,o,{
name = "14";
}),
(-252,372,o,{
name = "14";
}),
(-252,390,c,{
name = "13";
})
);
},
{
closed = 1;
nodes = (
(-253,153,o,{
name = "14";
}),
(-253,233,o,{
name = "14";
}),
(-252,310,c,{
name = "13";
}),
(-232,330,o,{
name = "14";
}),
(-197,345,o,{
name = "14";
}),
(-157,344,cs,{
name = "15";
}),
(-97,344,o,{
name = "14";
}),
(-25,298,o,{
name = "14";
}),
(-25,190,cs,{
name = "15";
}),
(-25,100,o,{
name = "14";
}),
(-56,31,o,{
name = "14";
}),
(-130,27,cs,{
name = "15";
}),
(-209,23,o,{
name = "14";
}),
(-238,63,o,{
name = "14";
}),
(-253,73,c,{
name = "13";
})
);
}
);
width = 490;
},
{
associatedMasterId = m01;
background = {
shapes = (
{
closed = 1;
nodes = (
(86,-240,l),
(111,-262,o),
(130,-273,o),
(160,-283,c),
(234,-240,l),
(196,-228,o),
(182,-220,o),
(158,-200,c),
(158,-2,l),
(159,-3,l),
(182,-9,o),
(194,-11,o),
(212,-11,cs),
(259,-11,o),
(291,1,o),
(335,36,c),
(417,68,o),
(461,128,o),
(461,210,cs),
(461,310,o),
(377,395,o),
(278,395,cs),
(230,395,o),
(199,383,o),
(155,347,c),
(156,346,ls),
(132,367,o),
(114,377,o),
(85,387,c),
(11,344,l),
(48,332,o),
(63,324,o),
(86,304,c)
);
},
{
closed = 1;
nodes = (
(182,347,o),
(194,349,o),
(212,349,cs),
(312,349,o),
(389,273,o),
(389,174,cs),
(389,125,o),
(370,82,o),
(331,43,c),
(307,37,o),
(295,35,o),
(278,35,cs),
(231,35,o),
(200,47,o),
(158,80,c),
(158,342,l),
(159,341,l)
);
},
{
closed = 1;
nodes = (
(370,367,l),
(346,389,o),
(313,395,o),
(286,395,cs),
(239,395,o),
(188,378,o),
(156,342,c),
(157,323,l),
(173,336,o),
(202,350,o),
(236,350,cs),
(265,350,o),
(303,336,o),
(320,307,c)
);
}
);
};
layerId = "C5CD5972-3721-4045-AEB6-60BEB087F742";
name = "second try";
shapes = (
{
closed = 1;
nodes = (
(253,-280,l),
(253,-264,l),
(218,-259,o),
(189,-255,o),
(174,-240,cs),
(160,-226,o),
(155,-220,o),
(155,25,cs),
(155,242,o),
(155,255,o),
(155,394,c),
(11,350,l),
(11,334,l),
(33,334,o),
(58,330,o),
(71,315,cs),
(95,289,o),
(89,237,o),
(89,25,cs),
(89,-220,o),
(83,-231,o),
(76,-241,cs),
(65,-255,o),
(46,-261,o),
(11,-264,c),
(11,-280,l)
);
},
{
closed = 1;
nodes = (
(329,350,o),
(389,297,o),
(390,191,cs),
(391,104,o),
(349,33,o),
(262,33,cs),
(207,33,o),
(160,58,o),
(136,104,c),
(112,25,l),
(136,9,o),
(180,-9,o),
(236,-9,cs),
(333,-9,o),
(458,58,o),
(458,219,cs),
(458,324,o),
(394,395,o),
(292,395,cs),
(239,395,o),
(182,374,o),
(152,345,c),
(146,333,l),
(152,318,l),
(168,334,o),
(204,350,o),
(245,350,cs)
);
}
);
width = 490;
},
{
associatedMasterId = m01;
background = {
guides = (
{
angle = 90;
pos = (209,347);
},
{
angle = 90;
pos = (335,347);
},
{
pos = (335,347);
},
{
angle = 90;
pos = (171,327);
},
{
pos = (171,327);
},
{
angle = 90;
pos = (254,347);
},
{
pos = (390,188);
},
{
pos = (390,292);
}
);
shapes = (
{
closed = 1;
nodes = (
(589,-235,l),
(614,-257,o),
(633,-268,o),
(663,-278,c),
(737,-235,l),
(699,-223,o),
(685,-215,o),
(661,-195,c),
(661,3,l),
(662,2,l),
(685,-4,o),
(697,-6,o),
(715,-6,cs),
(762,-6,o),
(794,6,o),
(838,41,c),
(920,73,o),
(964,133,o),
(964,215,cs),
(964,315,o),
(880,400,o),
(781,400,cs),
(733,400,o),
(702,388,o),
(658,352,c),
(659,351,ls),
(635,372,o),
(617,382,o),
(588,392,c),
(514,349,l),
(551,337,o),
(566,329,o),
(589,309,c)
);
},
{
closed = 1;
nodes = (
(685,352,o),
(697,354,o),
(715,354,cs),
(815,354,o),
(892,278,o),
(892,179,cs),
(892,130,o),
(873,87,o),
(834,48,c),
(810,42,o),
(798,40,o),
(781,40,cs),
(734,40,o),
(703,52,o),
(661,85,c),
(661,347,l),
(662,346,l)
);
},
{
closed = 1;
nodes = (
(873,372,l),
(849,394,o),
(816,400,o),
(789,400,cs),
(742,400,o),
(691,383,o),
(659,347,c),
(660,328,l),
(676,341,o),
(705,355,o),
(739,355,cs),
(768,355,o),
(806,341,o),
(823,312,c)
);
},
{
closed = 1;
nodes = (
(-299,485,l),
(-299,501,l),
(-334,504,o),
(-352,510,o),
(-363,524,cs),
(-370,534,o),
(-378,545,o),
(-378,670,cs),
(-378,744,o),
(-376,766,o),
(-374,795,c),
(-356,815,o),
(-325,832,o),
(-291,832,cs),
(-257,832,o),
(-231,818,o),
(-217,800,cs),
(-201,779,o),
(-198,754,o),
(-198,670,cs),
(-198,545,o),
(-204,534,o),
(-211,524,cs),
(-222,510,o),
(-242,504,o),
(-276,501,c),
(-276,485,l),
(-54,485,l),
(-54,501,l),
(-88,504,o),
(-109,511,o),
(-118,523,cs),
(-127,535,o),
(-131,543,o),
(-128,670,cs),
(-126,747,o),
(-124,795,o),
(-146,828,cs),
(-170,864,o),
(-212,879,o),
(-256,879,cs),
(-308,880,o),
(-349,852,o),
(-375,823,c),
(-379,879,l),
(-521,835,l),
(-521,819,l),
(-499,819,o),
(-474,813,o),
(-462,801,cs),
(-445,784,o),
(-443,739,o),
(-443,670,cs),
(-443,545,o),
(-449,534,o),
(-456,524,cs),
(-467,510,o),
(-486,504,o),
(-521,501,c),
(-521,485,l)
);
},
{
closed = 1;
nodes = (
(335,347,o),
(390,292,o),
(390,188,cs),
(390,102,o),
(348,33,o),
(262,33,cs),
(219,33,o),
(180,49,o),
(154,77,c),
(154,191,o),
(155,246,o),
(156,308,c),
(171,327,o),
(209,347,o),
(254,347,cs)
);
}
);
};
guides = (
{
angle = 90;
pos = (209,347);
},
{
angle = 90;
pos = (335,347);
},
{
angle = 90;
pos = (171,327);
},
{
pos = (335,347);
},
{
pos = (171,327);
},
{
angle = 90;
pos = (254,347);
},
{
pos = (390,188);
},
{
pos = (390,292);
}
);
layerId = "6DC1EE4C-C0D3-4CE7-8AA4-0BFC0D0B41F1";
name = "7 Jan 25 at 12:09";
shapes = (
{
closed = 1;
nodes = (
(253,-280,l),
(253,-264,l),
(218,-259,o),
(189,-255,o),
(174,-240,cs),
(160,-226,o),
(158,-220,o),
(155,25,cs),
(153,198,o),
(155,252,o),
(157,339,c),
(153,394,l),
(11,350,l),
(11,334,l),
(33,334,o),
(58,330,o),
(71,315,cs),
(95,289,o),
(89,237,o),
(89,25,cs),
(89,-220,o),
(83,-231,o),
(76,-241,cs),
(65,-255,o),
(46,-261,o),
(11,-264,c),
(11,-280,l)
);
},
{
closed = 1;
nodes = (
(335,347,o),
(390,292,o),
(390,188,cs),
(390,104,o),
(349,33,o),
(262,33,cs),
(207,33,o),
(160,58,o),
(136,104,c),
(112,25,l),
(136,9,o),
(180,-9,o),
(236,-9,cs),
(333,-9,o),
(458,58,o),
(458,219,cs),
(458,324,o),
(394,395,o),
(292,395,cs),
(218,395,o),
(176,355,o),
(151,332,c),
(146,323,l),
(156,308,l),
(171,327,o),
(209,347,o),
(254,347,cs)
);
}
);
width = 490;
}
);
note = p;
unicode = 112;
},
{
glyphname = q;
layers = (
{
layerId = m01;
shapes = (
{
closed = 1;
nodes = (
(354,384,o),
(326,395,o),
(278,395,cs),
(230,395,o),
(199,383,o),
(155,347,c),
(73,316,o),
(29,256,o),
(29,174,cs),
(29,74,o),
(113,-11,o),
(212,-11,cs),
(258,-11,o),
(290,1,o),
(331,34,c),
(331,-240,l),
(357,-262,o),
(375,-273,o),
(405,-283,c),
(479,-240,l),
(442,-228,o),
(427,-220,o),
(403,-200,c),
(403,344,l)
);
},
{
closed = 1;
nodes = (
(308,37,o),
(296,35,o),
(278,35,cs),
(178,35,o),
(101,111,o),
(101,210,cs),
(101,259,o),
(120,302,o),
(159,341,c),
(183,347,o),
(194,349,o),
(212,349,cs),
(258,349,o),
(290,337,o),
(331,304,c),
(331,42,l),
(331,43,l)
);
}
);
width = 490;
}
);
note = q;
unicode = 113;
},
{
glyphname = r;
lastChange = "2025-01-08 08:48:05 +0000";
layers = (
{
background = {
shapes = (
{
closed = 1;
nodes = (
(86,40,l),
(111,18,o),
(130,7,o),
(160,-3,c),
(234,40,l),
(196,52,o),
(182,60,o),
(158,80,c),
(158,342,l),
(159,341,l),
(182,347,o),
(194,349,o),
(212,349,cs),
(260,349,o),
(289,338,o),
(335,301,c),
(406,342,l),
(354,384,o),
(326,395,o),
(278,395,cs),
(230,395,o),
(199,383,o),
(155,347,c),
(156,346,ls),
(132,367,o),
(114,377,o),
(85,387,c),
(11,344,l),
(48,332,o),
(63,324,o),
(86,304,c)
);
}
);
};
layerId = m01;
shapes = (
{
closed = 1;
nodes = (
(253,320,o),
(268,304,o),
(275,301,c),
(290,309,o),
(319,350,o),
(317,367,c),
(307,379,o),
(288,392,o),
(260,392,cs),
(221,392,o),
(198,368,o),
(184,351,cs),
(171,335,o),
(160,318,o),
(149,297,c),
(154,258,l),
(172,295,o),
(189,320,o),
(226,320,cs)
);
},
{
closed = 1;
nodes = (
(11,350,l),
(11,334,l),
(33,334,o),
(54,329,o),
(69,312,cs),
(89,290,o),
(90,254,o),
(90,185,cs),
(90,60,o),
(83,49,o),
(76,39,cs),
(65,25,o),
(46,19,o),
(11,16,c),
(11,0,l),
(253,0,l),
(253,16,l),
(219,19,o),
(184,29,o),
(172,43,cs),
(162,55,o),
(154,61,o),
(154,186,cs),
(154,265,o),
(153,273,o),
(155,302,c),
(153,394,l)
);
}
);
width = 319;
},
{
associatedMasterId = m01;
background = {
shapes = (
{
closed = 1;
nodes = (
(86,40,l),
(111,18,o),
(130,7,o),
(160,-3,c),
(234,40,l),
(196,52,o),
(182,60,o),
(158,80,c),
(158,342,l),
(159,341,l),
(182,347,o),
(194,349,o),
(212,349,cs),
(260,349,o),
(289,338,o),
(335,301,c),
(406,342,l),
(354,384,o),
(326,395,o),
(278,395,cs),
(230,395,o),
(199,383,o),
(155,347,c),
(156,346,ls),
(132,367,o),
(114,377,o),
(85,387,c),
(11,344,l),
(48,332,o),
(63,324,o),
(86,304,c)
);
}
);
};
layerId = "0D83E580-0989-4039-B728-3AD8D74FD5AF";
name = Grid;
shapes = (
{
closed = 1;
nodes = (
(251,320,o),
(266,304,o),
(273,301,c),
(288,309,o),
(317,350,o),
(315,367,c),
(305,379,o),
(286,392,o),
(258,392,cs),
(219,392,o),
(194,370,o),
(182,351,cs),
(172,335,o),
(161,318,o),
(150,297,c),
(155,258,l),
(173,295,o),
(187,320,o),
(224,320,cs)
);
},
{
closed = 1;
nodes = (
(18,350,l),
(18,332,l),
(40,332,o),
(51,329,o),
(66,312,cs),
(86,290,o),
(87,254,o),
(87,185,cs),
(87,60,o),
(80,49,o),
(76,39,cs),
(69,22,o),
(53,21,o),
(18,18,c),
(18,0,l),
(245,0,l),
(245,18,l),
(211,21,o),
(184,29,o),
(172,43,cs),
(162,55,o),
(157,61,o),
(157,186,cs),
(157,265,o),
(156,273,o),
(158,302,c),
(156,394,l)
);
}
);
width = 315;
}
);
note = r;
unicode = 114;
},
{
glyphname = s;
lastChange = "2025-01-08 09:08:20 +0000";
layers = (
{
background = {
shapes = (
{
closed = 1;
nodes = (
(86,386,l),
(86,387,l),
(13,346,l),
(16,341,l),
(86,341,l),
(86,40,l),
(111,18,o),
(130,7,o),
(159,-3,c),
(234,40,l),
(197,52,o),
(181,60,o),
(158,80,c),
(158,662,l),
(159,661,l),
(182,667,o),
(193,669,o),
(212,669,cs),
(260,669,o),
(289,657,o),
(335,621,c),
(406,662,l),
(352,705,o),
(327,715,o),
(277,715,cs),
(230,715,o),
(198,703,o),
(155,667,c),
(86,628,l)
);
},
{
closed = 1;
nodes = (
(253,321,o),
(268,305,o),
(275,302,c),
(290,310,o),
(319,352,o),
(317,369,c),
(307,381,o),
(288,394,o),
(260,394,cs),
(221,394,o),
(198,370,o),
(184,353,cs),
(171,337,o),
(160,320,o),
(149,299,c),
(154,259,l),
(172,296,o),
(189,321,o),
(226,321,cs)
);
},
{
closed = 1;
nodes = (
(11,350,l),
(11,334,l),
(33,334,o),
(58,328,o),
(70,316,cs),
(87,299,o),
(89,254,o),
(89,185,cs),
(89,60,o),
(83,49,o),
(76,39,cs),
(65,25,o),
(46,19,o),
(11,16,c),
(11,0,l),
(233,0,l),
(233,16,l),
(198,19,o),
(180,25,o),
(169,39,cs),
(162,49,o),
(154,60,o),
(154,185,cs),
(154,264,o),
(153,273,o),
(155,302,c),
(153,394,l)
);
}
);
};
layerId = m01;
shapes = (
{
closed = 1;
nodes = (
(218,-10,o),
(300,29,o),
(300,107,cs),
(300,174,o),
(226,199,o),
(174,224,cs),
(138,239,o),
(90,255,o),
(90,296,cs),
(90,327,o),
(115,365,o),
(166,365,cs),
(230,365,o),
(272,319,o),
(279,260,c),
(295,260,l),
(295,341,l),
(253,390,o),
(200,396,o),
(166,396,cs),
(107,396,o),
(25,356,o),
(25,279,cs),
(25,219,o),
(83,194,o),
(134,170,cs),
(162,157,o),
(236,138,o),
(236,90,cs),
(236,60,o),
(210,21,o),
(159,21,cs),
(95,21,o),
(48,68,o),
(47,127,c),
(30,127,l),
(30,45,l),
(72,-4,o),
(125,-10,o),
(159,-10,cs)
);
}
);
width = 337;
},
{
associatedMasterId = m01;
background = {
shapes = (
{
closed = 1;
nodes = (
(86,386,l),
(86,387,l),
(13,346,l),
(16,341,l),
(86,341,l),
(86,40,l),
(111,18,o),
(130,7,o),
(159,-3,c),
(234,40,l),
(197,52,o),
(181,60,o),
(158,80,c),
(158,662,l),
(159,661,l),
(182,667,o),
(193,669,o),
(212,669,cs),
(260,669,o),
(289,657,o),
(335,621,c),
(406,662,l),
(352,705,o),
(327,715,o),
(277,715,cs),
(230,715,o),
(198,703,o),
(155,667,c),
(86,628,l)
);
},
{
closed = 1;
nodes = (
(253,321,o),
(268,305,o),
(275,302,c),
(290,310,o),
(319,352,o),
(317,369,c),
(307,381,o),
(288,394,o),
(260,394,cs),
(221,394,o),
(198,370,o),
(184,353,cs),
(171,337,o),
(160,320,o),
(149,299,c),
(154,259,l),
(172,296,o),
(189,321,o),
(226,321,cs)
);
},
{
closed = 1;
nodes = (
(11,350,l),
(11,334,l),
(33,334,o),
(58,328,o),
(70,316,cs),
(87,299,o),
(89,254,o),
(89,185,cs),
(89,60,o),
(83,49,o),
(76,39,cs),
(65,25,o),
(46,19,o),
(11,16,c),
(11,0,l),
(233,0,l),
(233,16,l),
(198,19,o),
(180,25,o),
(169,39,cs),
(162,49,o),
(154,60,o),
(154,185,cs),
(154,264,o),
(153,273,o),
(155,302,c),
(153,394,l)
);
}
);
};
layerId = "34793BF6-8C8B-4B93-93BA-9E47EAFF3A74";
name = Grid;
shapes = (
{
closed = 1;
nodes = (
(208,-10,o),
(280,29,o),
(280,107,cs),
(280,174,o),
(215,199,o),
(168,224,cs),
(137,239,o),
(95,255,o),
(95,296,cs),
(95,327,o),
(115,365,o),
(162,365,cs),
(219,365,o),
(253,319,o),
(260,260,c),
(273,260,l),
(273,341,l),
(237,390,o),
(191,396,o),
(162,396,cs),
(109,396,o),
(36,356,o),
(36,279,cs),
(36,219,o),
(87,194,o),
(133,170,cs),
(157,157,o),
(223,138,o),
(223,90,cs),
(223,60,o),
(201,21,o),
(154,21,cs),
(98,21,o),
(59,68,o),
(58,127,c),
(42,127,l),
(42,45,l),
(81,-4,o),
(125,-10,o),
(154,-10,cs)
);
}
);
width = 315;
}
);
note = s;
unicode = 115;
},
{
glyphname = t;
lastChange = "2025-01-08 09:02:57 +0000";
layers = (
{
background = {
shapes = (
{
closed = 1;
nodes = (
(135,1,o),
(164,-11,o),
(212,-11,cs),
(261,-11,o),
(289,0,o),
(337,39,c),
(334,44,l),
(331,44,o),
(327,43,o),
(327,42,c),
(309,37,o),
(296,35,o),
(277,35,cs),
(231,35,o),
(199,47,o),
(158,80,c),
(158,342,l),
(159,341,l),
(265,341,l),
(338,382,l),
(335,387,l),
(158,387,l),
(158,429,l),
(13,346,l),
(16,341,l),
(86,341,l),
(86,40,l)
);
}
);
};
guides = (
{
angle = 270;
pos = (317,75);
}
);
layerId = m01;
shapes = (
{
closed = 1;
nodes = (
(315,386,l),
(315,344,l),
(133,344,l),
(132,386,l)
);
},
{
closed = 1;
nodes = (
(317,33,l),
(292,8,o),
(256,-8,o),
(214,-7,cs),
(170,-7,o),
(129,8,o),
(105,44,cs),
(83,77,o),
(85,126,o),
(87,203,cs),
(90,283,o),
(90,320,o),
(90,344,c),
(68,344,o),
(36,344,o),
(16,344,c),
(16,360,l),
(82,377,o),
(126,424,o),
(148,479,c),
(164,479,l),
(162,417,o),
(158,267,o),
(156,202,cs),
(154,118,o),
(158,95,o),
(174,74,cs),
(188,57,o),
(212,43,o),
(247,43,cs),
(274,43,o),
(299,49,o),
(317,63,c)
);
}
);
width = 342;
},
{
associatedMasterId = m01;
background = {
shapes = (
{
closed = 1;
nodes = (
(135,1,o),
(164,-11,o),
(212,-11,cs),
(261,-11,o),
(289,0,o),
(337,39,c),
(334,44,l),
(331,44,o),
(327,43,o),
(327,42,c),
(309,37,o),
(296,35,o),
(277,35,cs),
(231,35,o),
(199,47,o),
(158,80,c),
(158,342,l),
(159,341,l),
(265,341,l),
(338,382,l),
(335,387,l),
(158,387,l),
(158,429,l),
(13,346,l),
(16,341,l),
(86,341,l),
(86,40,l)
);
}
);
};
guides = (
{
angle = 270;
pos = (317,75);
}
);
layerId = "F5B77F0D-F895-4C7B-86D5-35F3D5BB77E7";
name = Grid;
shapes = (
{
closed = 1;
nodes = (
(298,386,l),
(298,344,l),
(133,344,l),
(132,386,l)
);
},
{
closed = 1;
nodes = (
(315,33,l),
(290,8,o),
(256,-8,o),
(214,-7,cs),
(170,-7,o),
(129,8,o),
(105,44,cs),
(83,77,o),
(87,126,o),
(87,203,cs),
(87,283,o),
(87,320,o),
(87,344,c),
(65,344,o),
(37,344,o),
(17,344,c),
(17,362,l),
(83,379,o),
(119,424,o),
(141,479,c),
(158,479,l),
(157,417,o),
(156,267,o),
(156,202,cs),
(156,118,o),
(158,95,o),
(174,74,cs),
(188,57,o),
(212,43,o),
(247,43,cs),
(274,43,o),
(297,49,o),
(315,63,c)
);
}
);
width = 315;
}
);
note = t;
unicode = 116;
},
{
glyphname = u;
lastChange = "2025-01-08 08:47:06 +0000";
layers = (
{
background = {
shapes = (
{
closed = 1;
nodes = (
(86,40,l,{
name = "13";
}),
(135,1,o,{
name = "14";
}),
(164,-11,o,{
name = "14";
}),
(212,-11,cs,{
name = "15";
}),
(259,-11,o,{
name = "14";
}),
(291,1,o,{
name = "14";
}),
(335,37,c,{
name = "13";
}),
(334,38,l,{
name = "13";
}),
(357,18,o,{
name = "14";
}),
(376,6,o,{
name = "14";
}),
(404,-3,c,{
name = "13";
}),
(479,40,l,{
name = "13";
}),
(441,52,o,{
name = "14";
}),
(426,60,o,{
name = "14";
}),
(403,80,c,{
name = "13";
}),
(403,344,l,{
name = "13";
}),
(377,368,o,{
name = "14";
}),
(361,377,o,{
name = "14";
}),
(330,387,c,{
name = "13";
}),
(256,345,l,{
name = "13";
}),
(293,332,o,{
name = "14";
}),
(308,324,o,{
name = "14";
}),
(331,304,c,{
name = "13";
}),
(331,43,l,{
name = "13";
}),
(331,44,l,{
name = "13";
}),
(307,37,o,{
name = "14";
}),
(296,35,o,{
name = "14";
}),
(278,35,cs,{
name = "15";
}),
(231,35,o,{
name = "14";
}),
(200,47,o,{
name = "14";
}),
(158,80,c,{
name = "13";
}),
(158,344,l,{
name = "13";
}),
(132,368,o,{
name = "14";
}),
(116,377,o,{
name = "14";
}),
(85,387,c,{
name = "13";
}),
(11,345,l,{
name = "13";
}),
(48,332,o,{
name = "14";
}),
(63,324,o,{
name = "14";
}),
(86,304,c,{
name = "13";
})
);
}
);
};
layerId = m01;
shapes = (
{
closed = 1;
nodes = (
(157,332,o),
(156,267,o),
(155,202,cs),
(154,118,o),
(158,95,o),
(174,74,cs),
(188,57,o),
(212,43,o),
(247,43,cs),
(283,43,o),
(314,59,o),
(332,79,c),
(334,108,o),
(334,128,o),
(335,202,cs),
(336,267,o),
(335,301,o),
(319,317,cs),
(307,329,o),
(283,335,o),
(261,335,c),
(261,351,l),
(403,394,l),
(401,332,o),
(401,272,o),
(400,202,cs),
(399,119,o),
(397,93,o),
(417,73,cs),
(431,59,o),
(457,53,o),
(479,53,c),
(479,37,l),
(336,-7,l),
(333,49,l),
(307,20,o),
(266,-8,o),
(214,-7,cs),
(170,-7,o),
(129,8,o),
(105,44,cs),
(83,77,o),
(85,125,o),
(86,202,cs),
(87,267,o),
(85,302,o),
(70,317,cs),
(56,332,o),
(32,335,o),
(12,335,c),
(12,351,l),
(158,394,l)
);
}
);
width = 490;
},
{
associatedMasterId = m01;
background = {
shapes = (
{
closed = 1;
nodes = (
(86,40,l,{
name = "13";
}),
(135,1,o,{
name = "14";
}),
(164,-11,o,{
name = "14";
}),
(212,-11,cs,{
name = "15";
}),
(259,-11,o,{
name = "14";
}),
(291,1,o,{
name = "14";
}),
(335,37,c,{
name = "13";
}),
(334,38,l,{
name = "13";
}),
(357,18,o,{
name = "14";
}),
(376,6,o,{
name = "14";
}),
(404,-3,c,{
name = "13";
}),
(479,40,l,{
name = "13";
}),
(441,52,o,{
name = "14";
}),
(426,60,o,{
name = "14";
}),
(403,80,c,{
name = "13";
}),
(403,344,l,{
name = "13";
}),
(377,368,o,{
name = "14";
}),
(361,377,o,{
name = "14";
}),
(330,387,c,{
name = "13";
}),
(256,345,l,{
name = "13";
}),
(293,332,o,{
name = "14";
}),
(308,324,o,{
name = "14";
}),
(331,304,c,{
name = "13";
}),
(331,43,l,{
name = "13";
}),
(331,44,l,{
name = "13";
}),
(307,37,o,{
name = "14";
}),
(296,35,o,{
name = "14";
}),
(278,35,cs,{
name = "15";
}),
(231,35,o,{
name = "14";
}),
(200,47,o,{
name = "14";
}),
(158,80,c,{
name = "13";
}),
(158,344,l,{
name = "13";
}),
(132,368,o,{
name = "14";
}),
(116,377,o,{
name = "14";
}),
(85,387,c,{
name = "13";
}),
(11,345,l,{
name = "13";
}),
(48,332,o,{
name = "14";
}),
(63,324,o,{
name = "14";
}),
(86,304,c,{
name = "13";
})
);
}
);
};
layerId = "450D7B7F-13FD-47E8-9AF6-22DCCCC0B6BB";
name = Grid;
shapes = (
{
closed = 1;
nodes = (
(159,332,o),
(158,267,o),
(157,202,cs),
(156,118,o),
(160,95,o),
(176,74,cs),
(190,57,o),
(212,43,o),
(247,43,cs),
(283,43,o),
(314,59,o),
(332,79,c),
(334,108,o),
(332,128,o),
(333,202,cs),
(334,267,o),
(333,301,o),
(317,317,cs),
(305,329,o),
(283,333,o),
(261,333,c),
(261,351,l),
(404,394,l),
(402,332,o),
(402,272,o),
(401,202,cs),
(400,119,o),
(398,93,o),
(417,73,cs),
(431,59,o),
(450,55,o),
(472,55,c),
(472,37,l),
(336,-7,l),
(333,49,l),
(307,20,o),
(266,-7,o),
(214,-7,cs),
(172,-7,o),
(132,9,o),
(107,44,cs),
(84,77,o),
(86,125,o),
(87,202,cs),
(88,267,o),
(86,302,o),
(71,317,cs),
(57,332,o),
(38,333,o),
(18,333,c),
(18,351,l),
(160,394,l)
);
}
);
width = 490;
},
{
associatedMasterId = m01;
background = {
shapes = (
{
closed = 1;
nodes = (
(86,40,l,{
name = "13";
}),
(135,1,o,{
name = "14";
}),
(164,-11,o,{
name = "14";
}),
(212,-11,cs,{
name = "15";
}),
(259,-11,o,{
name = "14";
}),
(291,1,o,{
name = "14";
}),
(335,37,c,{
name = "13";
}),
(334,38,l,{
name = "13";
}),
(357,18,o,{
name = "14";
}),
(376,6,o,{
name = "14";
}),
(404,-3,c,{
name = "13";
}),
(479,40,l,{
name = "13";
}),
(441,52,o,{
name = "14";
}),
(426,60,o,{
name = "14";
}),
(403,80,c,{
name = "13";
}),
(403,344,l,{
name = "13";
}),
(377,368,o,{
name = "14";
}),
(361,377,o,{
name = "14";
}),
(330,387,c,{
name = "13";
}),
(256,345,l,{
name = "13";
}),
(293,332,o,{
name = "14";
}),
(308,324,o,{
name = "14";
}),
(331,304,c,{
name = "13";
}),
(331,43,l,{
name = "13";
}),
(331,44,l,{
name = "13";
}),
(307,37,o,{
name = "14";
}),
(296,35,o,{
name = "14";
}),
(278,35,cs,{
name = "15";
}),
(231,35,o,{
name = "14";
}),
(200,47,o,{
name = "14";
}),
(158,80,c,{
name = "13";
}),
(158,344,l,{
name = "13";
}),
(132,368,o,{
name = "14";
}),
(116,377,o,{
name = "14";
}),
(85,387,c,{
name = "13";
}),
(11,345,l,{
name = "13";
}),
(48,332,o,{
name = "14";
}),
(63,324,o,{
name = "14";
}),
(86,304,c,{
name = "13";
})
);
}
);
};
layerId = "BBD9097E-5531-48D5-B92A-4DD72EBDC236";
name = "Grid 2";
shapes = (
{
closed = 1;
nodes = (
(143,332,o),
(142,267,o),
(141,202,cs),
(140,118,o),
(144,95,o),
(160,74,cs),
(174,57,o),
(212,43,o),
(247,43,cs),
(283,43,o),
(314,59,o),
(332,79,c),
(334,108,o),
(332,128,o),
(333,202,cs),
(334,267,o),
(333,301,o),
(317,317,cs),
(305,329,o),
(303,335,o),
(281,335,c),
(281,351,l),
(404,394,l),
(402,332,o),
(402,272,o),
(401,202,cs),
(400,119,o),
(398,93,o),
(417,73,cs),
(431,59,o),
(450,53,o),
(472,53,c),
(472,37,l),
(336,-7,l),
(333,49,l),
(307,20,o),
(266,-7,o),
(214,-7,cs),
(172,-7,o),
(116,9,o),
(91,44,cs),
(68,77,o),
(70,125,o),
(71,202,cs),
(72,267,o),
(70,302,o),
(55,317,cs),
(41,332,o),
(38,335,o),
(18,335,c),
(18,351,l),
(144,394,l)
);
}
);
width = 490;
}
);
note = u;
unicode = 117;
},
{
glyphname = v;
lastChange = "2025-01-08 09:07:53 +0000";
layers = (
{
background = {
shapes = (
{
closed = 1;
nodes = (
(386,347,l),
(397,361,o),
(416,367,o),
(451,370,c),
(451,386,l),
(229,386,l),
(229,370,l),
(264,367,o),
(282,361,o),
(293,347,c)
);
},
{
closed = 1;
nodes = (
(152,361,o),
(172,367,o),
(206,370,c),
(206,386,l),
(-16,386,l),
(-16,370,l),
(18,367,o),
(39,360,o),
(48,348,c),
(141,347,l)
);
}
);
};
layerId = m01;
shapes = (
{
closed = 1;
nodes = (
(241,0,l),
(286,111,o),
(333,222,o),
(379,333,cs),
(392,364,o),
(417,367,o),
(451,370,c),
(451,386,l),
(229,386,l),
(229,370,l),
(280,370,o),
(339,349,o),
(310,267,cs),
(286,198,o),
(264,143,o),
(248,106,c),
(207,179,o),
(163,262,o),
(143,311,cs),
(124,358,o),
(164,366,o),
(206,370,c),
(206,386,l),
(-16,386,l),
(-16,370,l),
(22,366,o),
(40,361,o),
(54,334,cs),
(110,226,o),
(164,119,o),
(225,0,c)
);
}
);
width = 387;
},
{
associatedMasterId = m01;
background = {
shapes = (
{
closed = 1;
nodes = (
(386,347,l),
(397,361,o),
(416,367,o),
(451,370,c),
(451,386,l),
(229,386,l),
(229,370,l),
(264,367,o),
(282,361,o),
(293,347,c)
);
},
{
closed = 1;
nodes = (
(152,361,o),
(172,367,o),
(206,370,c),
(206,386,l),
(-16,386,l),
(-16,370,l),
(18,367,o),
(39,360,o),
(48,348,c),
(141,347,l)
);
}
);
};
layerId = "5D3F74D0-F2B8-4125-B6A1-62DD08958ADB";
name = Grid;
shapes = (
{
closed = 1;
nodes = (
(245,0,l),
(288,111,o),
(340,222,o),
(385,333,cs),
(398,364,o),
(422,365,o),
(455,368,c),
(455,386,l),
(245,386,l),
(245,368,l),
(295,368,o),
(348,348,o),
(318,267,cs),
(293,199,o),
(266,143,o),
(250,106,c),
(211,179,o),
(175,262,o),
(155,311,cs),
(137,358,o),
(169,364,o),
(210,368,c),
(210,386,l),
(1,386,l),
(1,368,l),
(38,364,o),
(55,361,o),
(69,334,cs),
(123,226,o),
(168,119,o),
(227,0,c)
);
}
);
width = 455;
}
);
note = v;
unicode = 118;
},
{
glyphname = w;
lastChange = "2025-01-02 15:03:44 +0000";
layers = (
{
background = {
shapes = (
{
closed = 1;
nodes = (
(355,367,o),
(338,377,o),
(309,387,c),
(249,327,l),
(283,316,o),
(299,307,o),
(321,289,c),
(245,119,l),
(135,346,l),
(111,366,o),
(92,378,o),
(64,387,c),
(4,327,l),
(39,316,o),
(56,306,o),
(80,286,c),
(225,-12,l),
(342,250,l),
(470,-12,l),
(628,343,l),
(601,367,o),
(584,377,o),
(554,387,c),
(494,327,l),
(527,316,o),
(544,307,o),
(566,289,c),
(490,119,l),
(380,346,l)
);
},
{
closed = 1;
nodes = (
(241,0,l),
(286,111,o),
(333,222,o),
(379,333,cs),
(392,364,o),
(417,367,o),
(451,370,c),
(451,386,l),
(229,386,l),
(229,370,l),
(280,370,o),
(339,349,o),
(310,267,cs),
(286,198,o),
(264,143,o),
(248,106,c),
(207,179,o),
(163,262,o),
(143,311,cs),
(124,358,o),
(164,366,o),
(206,370,c),
(206,386,l),
(-16,386,l),
(-16,370,l),
(22,366,o),
(40,361,o),
(54,334,cs),
(110,226,o),
(164,119,o),
(225,0,c)
);
}
);
};
layerId = m01;
shapes = (
{
closed = 1;
nodes = (
(241,0,l),
(343,248,l),
(470,0,l),
(486,0,l),
(531,111,o),
(578,222,o),
(624,333,cs),
(637,364,o),
(662,367,o),
(696,370,c),
(696,386,l),
(474,386,l),
(474,370,l),
(525,370,o),
(584,349,o),
(555,267,cs),
(531,198,o),
(509,143,o),
(493,106,c),
(361,386,l),
(349,386,l),
(248,106,l),
(207,179,o),
(163,262,o),
(143,311,cs),
(124,358,o),
(164,366,o),
(206,370,c),
(206,386,l),
(-16,386,l),
(-16,370,l),
(22,366,o),
(40,361,o),
(54,334,cs),
(225,0,l)
);
}
);
width = 632;
}
);
note = w;
unicode = 119;
},
{
glyphname = x;
layers = (
{
layerId = m01;
shapes = (
{
closed = 1;
nodes = (
(250,224,l),
(251,222,l),
(134,347,l),
(126,353,ls),
(108,368,o),
(89,379,o),
(64,387,c),
(4,327,l),
(39,316,o),
(56,306,o),
(80,285,c),
(80,286,l),
(191,167,l),
(121,100,l),
(63,42,l),
(91,17,o),
(106,8,o),
(138,-3,c),
(198,57,l),
(164,68,o),
(148,76,o),
(127,93,c),
(197,160,l),
(196,162,l),
(313,37,l),
(316,35,o),
(319,32,o),
(320,31,cs),
(338,16,o),
(356,6,o),
(383,-3,c),
(442,57,l),
(406,69,o),
(390,77,o),
(366,99,cs),
(367,98,l),
(256,217,l),
(325,284,l),
(384,342,l),
(356,367,o),
(340,376,o),
(309,387,c),
(249,327,l),
(282,316,o),
(298,308,o),
(319,290,c)
);
}
);
width = 446;
}
);
note = x;
unicode = 120;
},
{
glyphname = y;
layers = (
{
layerId = m01;
shapes = (
{
closed = 1;
nodes = (
(206,26,l),
(205,29,l),
(86,-239,l),
(112,-262,o),
(130,-273,o),
(160,-283,c),
(220,-223,l),
(185,-212,o),
(171,-204,o),
(148,-185,c),
(383,343,l),
(356,367,o),
(340,376,o),
(309,387,c),
(249,327,l),
(283,316,o),
(299,307,o),
(321,289,c),
(245,119,l),
(135,346,l),
(111,367,o),
(94,377,o),
(64,387,c),
(4,327,l),
(40,315,o),
(55,307,o),
(80,286,c)
);
}
);
width = 387;
}
);
note = y;
unicode = 121;
},
{
glyphname = z;
layers = (
{
layerId = m01;
shapes = (
{
closed = 1;
nodes = (
(263,324,l),
(4,-3,l),
(271,-3,l),
(330,56,l),
(328,60,l),
(73,60,l),
(332,387,l),
(66,387,l),
(6,328,l),
(9,324,l)
);
}
);
width = 336;
}
);
note = z;
unicode = 122;
},
{
glyphname = GID94;
lastChange = "2025-01-02 11:13:15 +0000";
layers = (
{
layerId = m01;
shapes = (
{
closed = 1;
nodes = (
(159,323,l),
(175,336,o),
(204,350,o),
(238,350,cs),
(278,350,o),
(331,324,o),
(331,266,cs),
(331,81,l),
(331,37,o),
(316,21,o),
(256,16,c),
(256,0,l),
(478,0,l),
(478,16,l),
(418,21,o),
(403,37,o),
(403,81,c),
(403,288,ls),
(403,367,o),
(336,395,o),
(288,395,cs),
(241,395,o),
(190,378,o),
(158,342,c)
);
},
{
closed = 1;
nodes = (
(158,342,l),
(158,342,o),
(157,341,o),
(157,341,c),
(153,395,l),
(11,350,l),
(11,334,l),
(87,333,o),
(86,313,o),
(86,269,cs),
(86,81,l),
(86,37,o),
(71,21,o),
(11,16,c),
(11,0,l),
(233,0,l),
(233,16,l),
(173,21,o),
(158,37,o),
(158,81,c),
(158,322,l),
(158,322,o),
(159,322,o),
(159,323,c)
);
}
);
width = 1000;
}
);
note = GID94;
},
{
glyphname = v.001;
lastChange = "2025-01-02 14:37:59 +0000";
layers = (
{
layerId = m01;
shapes = (
{
closed = 1;
nodes = (
(383,343,l),
(356,367,o),
(340,376,o),
(309,387,c),
(249,327,l),
(283,316,o),
(299,307,o),
(321,289,c),
(245,119,l),
(135,346,l),
(111,367,o),
(84,375,o),
(54,385,c),
(48,348,l),
(225,-12,l)
);
},
{
closed = 1;
nodes = (
(152,361,o),
(172,367,o),
(206,370,c),
(206,386,l),
(-16,386,l),
(-16,370,l),
(18,367,o),
(39,360,o),
(48,348,c),
(141,347,l)
);
},
{
closed = 1;
nodes = (
(386,347,l),
(397,361,o),
(416,367,o),
(451,370,c),
(451,386,l),
(229,386,l),
(229,370,l),
(264,367,o),
(282,361,o),
(293,347,c)
);
}
);
width = 387;
}
);
note = v;
},
